URWGothicL-Book.ufo
<glyph name="three" format="1">
  <advance width="554"/>
  <unicode hex="0033"/>
  <outline>
    <contour>
      <point x="155" y="555" type="curve"/>
      <point x="82" y="555" type="line"/>
      <point x="86" y="676"/>
      <point x="158" y="752"/>
      <point x="269" y="752" type="curve" smooth="yes"/>
      <point x="378" y="752"/>
      <point x="455" y="675"/>
      <point x="455" y="565" type="curve" smooth="yes"/>
      <point x="455" y="504"/>
      <point x="431" y="459"/>
      <point x="379" y="423" type="curve"/>
      <point x="462" y="381"/>
      <point x="504" y="313"/>
      <point x="504" y="224" type="curve" smooth="yes"/>
      <point x="504" y="91"/>
      <point x="402" y="-13"/>
      <point x="272" y="-13" type="curve" smooth="yes"/>
      <point x="184" y="-13"/>
      <point x="106" y="31"/>
      <point x="65" y="103" type="curve" smooth="yes"/>
      <point x="44" y="140"/>
      <point x="35" y="177"/>
      <point x="33" y="231" type="curve"/>
      <point x="106" y="231" type="line"/>
      <point x="110" y="178"/>
      <point x="117" y="153"/>
      <point x="135" y="126" type="curve" smooth="yes"/>
      <point x="166" y="80"/>
      <point x="214" y="54"/>
      <point x="270" y="54" type="curve" smooth="yes"/>
      <point x="360" y="54"/>
      <point x="430" y="126"/>
      <point x="430" y="220" type="curve" smooth="yes"/>
      <point x="430" y="298"/>
      <point x="379" y="364"/>
      <point x="305" y="382" type="curve" smooth="yes"/>
      <point x="285" y="386"/>
      <point x="268" y="387"/>
      <point x="219" y="388" type="curve"/>
      <point x="219" y="454" type="line"/>
      <point x="236" y="453" type="line" smooth="yes"/>
      <point x="245" y="452"/>
      <point x="252" y="452"/>
      <point x="255" y="452" type="curve" smooth="yes"/>
      <point x="332" y="452"/>
      <point x="381" y="498"/>
      <point x="381" y="568" type="curve" smooth="yes"/>
      <point x="381" y="637"/>
      <point x="335" y="685"/>
      <point x="269" y="685" type="curve" smooth="yes"/>
      <point x="197" y="685"/>
      <point x="156" y="637"/>
    </contour>
  </outline>
</glyph>
<glyph name="question" format="1">
  <advance width="591"/>
  <unicode hex="003F"/>
  <outline>
    <contour>
      <point x="261" y="0" type="line"/>
      <point x="261" y="126" type="line"/>
      <point x="335" y="126" type="line"/>
      <point x="335" y="0" type="line"/>
    </contour>
    <contour>
      <point x="135" y="508" type="curve"/>
      <point x="65" y="508" type="line"/>
      <point x="67" y="573"/>
      <point x="76" y="609"/>
      <point x="101" y="649" type="curve" smooth="yes"/>
      <point x="143" y="715"/>
      <point x="214" y="752"/>
      <point x="299" y="752" type="curve" smooth="yes"/>
      <point x="430" y="752"/>
      <point x="525" y="661"/>
      <point x="525" y="535" type="curve" smooth="yes"/>
      <point x="525" y="470"/>
      <point x="501" y="425"/>
      <point x="435" y="365" type="curve"/>
      <point x="361" y="300"/>
      <point x="334" y="256"/>
      <point x="333" y="193" type="curve"/>
      <point x="263" y="193" type="line"/>
      <point x="264" y="275"/>
      <point x="291" y="327"/>
      <point x="367" y="397" type="curve"/>
      <point x="435" y="461"/>
      <point x="451" y="488"/>
      <point x="451" y="537" type="curve" smooth="yes"/>
      <point x="451" y="623"/>
      <point x="387" y="685"/>
      <point x="299" y="685" type="curve" smooth="yes"/>
      <point x="239" y="685"/>
      <point x="186" y="656"/>
      <point x="159" y="608" type="curve" smooth="yes"/>
      <point x="145" y="583"/>
      <point x="139" y="557"/>
    </contour>
  </outline>
</glyph>
<glyph name="m" format="1">
  <advance width="938"/>
  <unicode hex="006D"/>
  <outline>
    <contour>
      <point x="63" y="0" type="line"/>
      <point x="63" y="547" type="line"/>
      <point x="137" y="547" type="line"/>
      <point x="137" y="484" type="line"/>
      <point x="179" y="539"/>
      <point x="222" y="560"/>
      <point x="291" y="560" type="curve" smooth="yes"/>
      <point x="373" y="560"/>
      <point x="427" y="528"/>
      <point x="470" y="455" type="curve"/>
      <point x="516" y="528"/>
      <point x="575" y="561"/>
      <point x="660" y="561" type="curve" smooth="yes"/>
      <point x="731" y="561"/>
      <point x="793" y="533"/>
      <point x="831" y="483" type="curve"/>
      <point x="862" y="444"/>
      <point x="875" y="397"/>
      <point x="875" y="325" type="curve" smooth="yes"/>
      <point x="875" y="0" type="line"/>
      <point x="801" y="0" type="line"/>
      <point x="801" y="317" type="line" smooth="yes"/>
      <point x="801" y="372"/>
      <point x="791" y="413"/>
      <point x="771" y="441" type="curve" smooth="yes"/>
      <point x="746" y="474"/>
      <point x="704" y="493"/>
      <point x="656" y="493" type="curve" smooth="yes"/>
      <point x="604" y="493"/>
      <point x="558" y="470"/>
      <point x="532" y="430" type="curve" smooth="yes"/>
      <point x="514" y="404"/>
      <point x="506" y="370"/>
      <point x="506" y="317" type="curve" smooth="yes"/>
      <point x="506" y="0" type="line"/>
      <point x="432" y="0" type="line"/>
      <point x="432" y="319" type="line" smooth="yes"/>
      <point x="432" y="376"/>
      <point x="422" y="414"/>
      <point x="398" y="442" type="curve" smooth="yes"/>
      <point x="371" y="474"/>
      <point x="329" y="492"/>
      <point x="284" y="492" type="curve" smooth="yes"/>
      <point x="192" y="492"/>
      <point x="137" y="428"/>
      <point x="137" y="319" type="curve" smooth="yes"/>
      <point x="137" y="0" type="line"/>
    </contour>
  </outline>
</glyph>
<glyph name="q" format="1">
  <advance width="682"/>
  <unicode hex="0071"/>
  <outline>
    <contour>
      <point x="619" y="547" type="line"/>
      <point x="619" y="-192" type="line"/>
      <point x="545" y="-192" type="line"/>
      <point x="545" y="94" type="line"/>
      <point x="497" y="24"/>
      <point x="423" y="-13"/>
      <point x="332" y="-13" type="curve" smooth="yes"/>
      <point x="169" y="-13"/>
      <point x="42" y="112"/>
      <point x="42" y="273" type="curve" smooth="yes"/>
      <point x="42" y="435"/>
      <point x="167" y="560"/>
      <point x="330" y="560" type="curve" smooth="yes"/>
      <point x="423" y="560"/>
      <point x="499" y="523"/>
      <point x="545" y="453" type="curve"/>
      <point x="545" y="547" type="line"/>
    </contour>
    <contour>
      <point x="333" y="492" type="curve" smooth="yes"/>
      <point x="210" y="492"/>
      <point x="117" y="398"/>
      <point x="117" y="272" type="curve" smooth="yes"/>
      <point x="117" y="149"/>
      <point x="210" y="55"/>
      <point x="333" y="55" type="curve" smooth="yes"/>
      <point x="454" y="55"/>
      <point x="550" y="150"/>
      <point x="550" y="270" type="curve" smooth="yes"/>
      <point x="550" y="397"/>
      <point x="457" y="492"/>
    </contour>
  </outline>
</glyph>
<glyph name="braceright" format="1">
  <advance width="351"/>
  <unicode hex="007D"/>
  <outline>
    <contour>
      <point x="116" y="12" type="curve" smooth="yes"/>
      <point x="116" y="182" type="line" smooth="yes"/>
      <point x="116" y="251"/>
      <point x="133" y="279"/>
      <point x="187" y="300" type="curve"/>
      <point x="190" y="300"/>
      <point x="197" y="303"/>
      <point x="205" y="306" type="curve"/>
      <point x="197" y="310"/>
      <point x="190" y="312"/>
      <point x="187" y="313" type="curve" smooth="yes"/>
      <point x="133" y="334"/>
      <point x="116" y="362"/>
      <point x="116" y="431" type="curve" smooth="yes"/>
      <point x="116" y="601" type="line" smooth="yes"/>
      <point x="116" y="623"/>
      <point x="111" y="644"/>
      <point x="102" y="655" type="curve" smooth="yes"/>
      <point x="94" y="665"/>
      <point x="82" y="668"/>
      <point x="49" y="671" type="curve" smooth="yes"/>
      <point x="38" y="672" type="line"/>
      <point x="38" y="739" type="line"/>
      <point x="115" y="737"/>
      <point x="139" y="731"/>
      <point x="164" y="704" type="curve" smooth="yes"/>
      <point x="183" y="684"/>
      <point x="193" y="647"/>
      <point x="193" y="600" type="curve" smooth="yes"/>
      <point x="193" y="430" type="line" smooth="yes"/>
      <point x="193" y="368"/>
      <point x="206" y="352"/>
      <point x="269" y="341" type="curve"/>
      <point x="269" y="272" type="line"/>
      <point x="206" y="261"/>
      <point x="193" y="245"/>
      <point x="193" y="183" type="curve" smooth="yes"/>
      <point x="193" y="13" type="line" smooth="yes"/>
      <point x="193" y="-39"/>
      <point x="181" y="-76"/>
      <point x="159" y="-96" type="curve" smooth="yes"/>
      <point x="134" y="-119"/>
      <point x="111" y="-125"/>
      <point x="38" y="-126" type="curve"/>
      <point x="38" y="-59" type="line"/>
      <point x="49" y="-58" type="line" smooth="yes"/>
      <point x="85" y="-55"/>
      <point x="96" y="-51"/>
      <point x="104" y="-39" type="curve" smooth="yes"/>
      <point x="111" y="-29"/>
      <point x="116" y="-8"/>
    </contour>
  </outline>
</glyph>
<glyph name="paragraph" format="1">
  <advance width="564"/>
  <unicode hex="00B6"/>
  <outline>
    <contour>
      <point x="227" y="-133" type="line"/>
      <point x="227" y="355" type="line"/>
      <point x="109" y="367"/>
      <point x="37" y="441"/>
      <point x="37" y="549" type="curve" smooth="yes"/>
      <point x="37" y="615"/>
      <point x="67" y="672"/>
      <point x="119" y="706" type="curve" smooth="yes"/>
      <point x="155" y="729"/>
      <point x="196" y="739"/>
      <point x="260" y="739" type="curve" smooth="yes"/>
      <point x="491" y="739" type="line"/>
      <point x="491" y="-133" type="line"/>
      <point x="416" y="-133" type="line"/>
      <point x="416" y="672" type="line"/>
      <point x="302" y="672" type="line"/>
      <point x="302" y="-133" type="line"/>
    </contour>
  </outline>
</glyph>
<glyph name="questiondown" format="1">
  <advance width="591"/>
  <unicode hex="00BF"/>
  <outline>
    <contour>
      <point x="330" y="547" type="line"/>
      <point x="330" y="421" type="line"/>
      <point x="256" y="421" type="line"/>
      <point x="256" y="547" type="line"/>
    </contour>
    <contour>
      <point x="456" y="39" type="curve"/>
      <point x="526" y="39" type="line"/>
      <point x="525" y="-25"/>
      <point x="515" y="-62"/>
      <point x="490" y="-102" type="curve" smooth="yes"/>
      <point x="448" y="-168"/>
      <point x="377" y="-205"/>
      <point x="292" y="-205" type="curve" smooth="yes"/>
      <point x="161" y="-205"/>
      <point x="66" y="-114"/>
      <point x="66" y="12" type="curve" smooth="yes"/>
      <point x="66" y="77"/>
      <point x="90" y="122"/>
      <point x="156" y="182" type="curve"/>
      <point x="230" y="247"/>
      <point x="257" y="292"/>
      <point x="259" y="354" type="curve"/>
      <point x="329" y="354" type="line"/>
      <point x="329" y="339" type="line" smooth="yes"/>
      <point x="329" y="305"/>
      <point x="317" y="266"/>
      <point x="296" y="232" type="curve" smooth="yes"/>
      <point x="280" y="205"/>
      <point x="267" y="191"/>
      <point x="224" y="150" type="curve" smooth="yes"/>
      <point x="157" y="86"/>
      <point x="140" y="59"/>
      <point x="140" y="10" type="curve" smooth="yes"/>
      <point x="140" y="-76"/>
      <point x="204" y="-138"/>
      <point x="293" y="-138" type="curve" smooth="yes"/>
      <point x="352" y="-138"/>
      <point x="405" y="-109"/>
      <point x="432" y="-61" type="curve" smooth="yes"/>
      <point x="446" y="-35"/>
      <point x="453" y="-9"/>
    </contour>
  </outline>
</glyph>
<glyph name="Ccedilla" format="1">
  <advance width="813"/>
  <unicode hex="00C7"/>
  <outline>
    <contour>
      <point x="429" y="-13" type="curve"/>
      <point x="405" y="-68" type="line"/>
      <point x="419" y="-63"/>
      <point x="427" y="-61"/>
      <point x="439" y="-61" type="curve" smooth="yes"/>
      <point x="485" y="-61"/>
      <point x="516" y="-95"/>
      <point x="516" y="-145" type="curve" smooth="yes"/>
      <point x="516" y="-201"/>
      <point x="478" y="-240"/>
      <point x="424" y="-240" type="curve" smooth="yes"/>
      <point x="377" y="-240"/>
      <point x="345" y="-214"/>
      <point x="331" y="-166" type="curve"/>
      <point x="378" y="-159" type="line"/>
      <point x="386" y="-183"/>
      <point x="400" y="-193"/>
      <point x="423" y="-193" type="curve" smooth="yes"/>
      <point x="451" y="-193"/>
      <point x="468" y="-175"/>
      <point x="468" y="-147" type="curve" smooth="yes"/>
      <point x="468" y="-119"/>
      <point x="449" y="-99"/>
      <point x="422" y="-99" type="curve" smooth="yes"/>
      <point x="405" y="-99"/>
      <point x="393" y="-105"/>
      <point x="378" y="-121" type="curve"/>
      <point x="348" y="-103" type="line"/>
      <point x="390" y="-12" type="line"/>
      <point x="308" y="0"/>
      <point x="263" y="16"/>
      <point x="211" y="52" type="curve" smooth="yes"/>
      <point x="103" y="125"/>
      <point x="44" y="236"/>
      <point x="44" y="367" type="curve" smooth="yes"/>
      <point x="44" y="588"/>
      <point x="207" y="752"/>
      <point x="427" y="752" type="curve" smooth="yes"/>
      <point x="580" y="752"/>
      <point x="710" y="674"/>
      <point x="767" y="547" type="curve"/>
      <point x="684" y="547" type="line"/>
      <point x="656" y="591"/>
      <point x="636" y="613"/>
      <point x="603" y="634" type="curve"/>
      <point x="554" y="667"/>
      <point x="494" y="684"/>
      <point x="430" y="684" type="curve" smooth="yes"/>
      <point x="254" y="684"/>
      <point x="119" y="548"/>
      <point x="119" y="370" type="curve" smooth="yes"/>
      <point x="119" y="197"/>
      <point x="260" y="55"/>
      <point x="431" y="55" type="curve" smooth="yes"/>
      <point x="498" y="55"/>
      <point x="565" y="77"/>
      <point x="614" y="116" type="curve" smooth="yes"/>
      <point x="639" y="135"/>
      <point x="657" y="155"/>
      <point x="688" y="194" type="curve"/>
      <point x="770" y="194" type="line"/>
      <point x="699" y="58"/>
      <point x="581" y="-14"/>
    </contour>
  </outline>
</glyph>
<glyph name="Ograve" format="1">
  <advance width="869"/>
  <unicode hex="00D2"/>
  <outline>
    <contour>
      <point x="435" y="752" type="curve" smooth="yes"/>
      <point x="649" y="752"/>
      <point x="825" y="580"/>
      <point x="825" y="369" type="curve" smooth="yes"/>
      <point x="825" y="160"/>
      <point x="649" y="-13"/>
      <point x="435" y="-13" type="curve" smooth="yes"/>
      <point x="218" y="-13"/>
      <point x="44" y="159"/>
      <point x="44" y="374" type="curve" smooth="yes"/>
      <point x="44" y="579"/>
      <point x="223" y="752"/>
    </contour>
    <contour>
      <point x="435" y="684" type="curve" smooth="yes"/>
      <point x="264" y="684"/>
      <point x="119" y="541"/>
      <point x="119" y="372" type="curve" smooth="yes"/>
      <point x="119" y="197"/>
      <point x="261" y="55"/>
      <point x="435" y="55" type="curve" smooth="yes"/>
      <point x="607" y="55"/>
      <point x="750" y="197"/>
      <point x="750" y="368" type="curve" smooth="yes"/>
      <point x="750" y="541"/>
      <point x="607" y="684"/>
    </contour>
    <contour>
      <point x="318" y="958" type="line"/>
      <point x="516" y="848" type="line"/>
      <point x="483" y="792" type="line"/>
      <point x="286" y="900" type="line"/>
    </contour>
  </outline>
</glyph>
<glyph name="Amacron" format="1">
  <advance width="740"/>
  <unicode hex="0100"/>
  <outline>
    <contour>
      <point x="11" y="0" type="line"/>
      <point x="328" y="739" type="line"/>
      <point x="411" y="739" type="line"/>
      <point x="729" y="0" type="line"/>
      <point x="648" y="0" type="line"/>
      <point x="541" y="249" type="line"/>
      <point x="197" y="249" type="line"/>
      <point x="89" y="0" type="line"/>
    </contour>
    <contour>
      <point x="225" y="316" type="line"/>
      <point x="512" y="316" type="line"/>
      <point x="370" y="655" type="line"/>
    </contour>
    <contour>
      <point x="202" y="889" type="line"/>
      <point x="539" y="889" type="line"/>
      <point x="539" y="825" type="line"/>
      <point x="202" y="825" type="line"/>
    </contour>
  </outline>
</glyph>
<glyph name="abreve" format="1">
  <advance width="683"/>
  <unicode hex="0103"/>
  <outline>
    <contour>
      <point x="620" y="547" type="line"/>
      <point x="620" y="0" type="line"/>
      <point x="546" y="0" type="line"/>
      <point x="546" y="96" type="line"/>
      <point x="488" y="18"/>
      <point x="428" y="-13"/>
      <point x="335" y="-13" type="curve" smooth="yes"/>
      <point x="167" y="-13"/>
      <point x="42" y="109"/>
      <point x="42" y="272" type="curve" smooth="yes"/>
      <point x="42" y="436"/>
      <point x="166" y="560"/>
      <point x="330" y="560" type="curve" smooth="yes"/>
      <point x="425" y="560"/>
      <point x="492" y="526"/>
      <point x="546" y="450" type="curve"/>
      <point x="546" y="547" type="line"/>
    </contour>
    <contour>
      <point x="332" y="492" type="curve" smooth="yes"/>
      <point x="213" y="492"/>
      <point x="117" y="396"/>
      <point x="117" y="277" type="curve" smooth="yes"/>
      <point x="117" y="152"/>
      <point x="212" y="55"/>
      <point x="336" y="55" type="curve" smooth="yes"/>
      <point x="454" y="55"/>
      <point x="546" y="152"/>
      <point x="546" y="276" type="curve" smooth="yes"/>
      <point x="546" y="398"/>
      <point x="452" y="492"/>
    </contour>
    <contour>
      <point x="189" y="743" type="curve"/>
      <point x="253" y="743" type="line"/>
      <point x="257" y="718"/>
      <point x="264" y="707"/>
      <point x="279" y="697" type="curve"/>
      <point x="297" y="687"/>
      <point x="319" y="681"/>
      <point x="341" y="681" type="curve" smooth="yes"/>
      <point x="363" y="681"/>
      <point x="385" y="687"/>
      <point x="403" y="697" type="curve"/>
      <point x="418" y="707"/>
      <point x="425" y="718"/>
      <point x="429" y="743" type="curve"/>
      <point x="493" y="743" type="line"/>
      <point x="484" y="694"/>
      <point x="472" y="672"/>
      <point x="444" y="652" type="curve" smooth="yes"/>
      <point x="418" y="633"/>
      <point x="383" y="623"/>
      <point x="341" y="623" type="curve" smooth="yes"/>
      <point x="252" y="623"/>
      <point x="204" y="661"/>
    </contour>
  </outline>
</glyph>
<glyph name="Aogonek" format="1">
  <advance width="740"/>
  <unicode hex="0104"/>
  <outline>
    <contour>
      <point x="328" y="739" type="line"/>
      <point x="412" y="739" type="line"/>
      <point x="729" y="0" type="line"/>
      <point x="686" y="-31"/>
      <point x="656" y="-70"/>
      <point x="656" y="-97" type="curve" smooth="yes"/>
      <point x="656" y="-125"/>
      <point x="681" y="-146"/>
      <point x="715" y="-146" type="curve" smooth="yes"/>
      <point x="731" y="-146"/>
      <point x="745" y="-143"/>
      <point x="760" y="-136" type="curve"/>
      <point x="760" y="-182" type="line"/>
      <point x="741" y="-188"/>
      <point x="725" y="-191"/>
      <point x="709" y="-191" type="curve" smooth="yes"/>
      <point x="649" y="-191"/>
      <point x="606" y="-153"/>
      <point x="606" y="-101" type="curve" smooth="yes"/>
      <point x="606" y="-61"/>
      <point x="627" y="-31"/>
      <point x="678" y="0" type="curve"/>
      <point x="648" y="0" type="line"/>
      <point x="541" y="249" type="line"/>
      <point x="197" y="249" type="line"/>
      <point x="89" y="0" type="line"/>
      <point x="11" y="0" type="line"/>
    </contour>
    <contour>
      <point x="225" y="316" type="line"/>
      <point x="512" y="316" type="line"/>
      <point x="370" y="655" type="line"/>
    </contour>
  </outline>
</glyph>
<glyph name="Ccircumflex" format="1">
  <advance width="813"/>
  <unicode hex="0108"/>
  <outline>
    <contour>
      <point x="224" y="839" type="line"/>
      <point x="369" y="965" type="line"/>
      <point x="435" y="965" type="line"/>
      <point x="578" y="839" type="line"/>
      <point x="489" y="839" type="line"/>
      <point x="403" y="913" type="line"/>
      <point x="315" y="839" type="line"/>
    </contour>
    <contour>
      <point x="688" y="194" type="curve"/>
      <point x="770" y="194" type="line"/>
      <point x="696" y="57"/>
      <point x="582" y="-13"/>
      <point x="432" y="-13" type="curve" smooth="yes"/>
      <point x="211" y="-13"/>
      <point x="44" y="151"/>
      <point x="44" y="367" type="curve" smooth="yes"/>
      <point x="44" y="588"/>
      <point x="207" y="752"/>
      <point x="427" y="752" type="curve" smooth="yes"/>
      <point x="580" y="752"/>
      <point x="710" y="674"/>
      <point x="767" y="547" type="curve"/>
      <point x="684" y="547" type="line"/>
      <point x="656" y="591"/>
      <point x="636" y="613"/>
      <point x="603" y="634" type="curve"/>
      <point x="554" y="667"/>
      <point x="494" y="684"/>
      <point x="430" y="684" type="curve" smooth="yes"/>
      <point x="254" y="684"/>
      <point x="119" y="548"/>
      <point x="119" y="370" type="curve" smooth="yes"/>
      <point x="119" y="197"/>
      <point x="260" y="55"/>
      <point x="431" y="55" type="curve" smooth="yes"/>
      <point x="498" y="55"/>
      <point x="565" y="77"/>
      <point x="614" y="116" type="curve" smooth="yes"/>
      <point x="639" y="135"/>
      <point x="657" y="155"/>
    </contour>
  </outline>
</glyph>
<glyph name="Dcaron" format="1">
  <advance width="744"/>
  <unicode hex="010E"/>
  <outline>
    <contour>
      <point x="76" y="0" type="line"/>
      <point x="76" y="739" type="line"/>
      <point x="250" y="739" type="line" smooth="yes"/>
      <point x="384" y="739"/>
      <point x="462" y="723"/>
      <point x="532" y="681" type="curve" smooth="yes"/>
      <point x="642" y="616"/>
      <point x="700" y="506"/>
      <point x="700" y="367" type="curve" smooth="yes"/>
      <point x="700" y="229"/>
      <point x="641" y="121"/>
      <point x="529" y="55" type="curve" smooth="yes"/>
      <point x="464" y="17"/>
      <point x="386" y="0"/>
      <point x="275" y="0" type="curve" smooth="yes"/>
    </contour>
    <contour>
      <point x="150" y="67" type="line"/>
      <point x="253" y="67" type="line" smooth="yes"/>
      <point x="384" y="67"/>
      <point x="460" y="86"/>
      <point x="519" y="133" type="curve" smooth="yes"/>
      <point x="587" y="188"/>
      <point x="625" y="273"/>
      <point x="625" y="370" type="curve" smooth="yes"/>
      <point x="625" y="480"/>
      <point x="576" y="573"/>
      <point x="491" y="624" type="curve" smooth="yes"/>
      <point x="435" y="658"/>
      <point x="365" y="672"/>
      <point x="253" y="672" type="curve" smooth="yes"/>
      <point x="150" y="672" type="line"/>
    </contour>
    <contour>
      <point x="509" y="931" type="line"/>
      <point x="364" y="805" type="line"/>
      <point x="298" y="805" type="line"/>
      <point x="155" y="931" type="line"/>
      <point x="244" y="931" type="line"/>
      <point x="330" y="857" type="line"/>
      <point x="418" y="931" type="line"/>
    </contour>
  </outline>
</glyph>
<glyph name="Dcroat" format="1">
  <advance width="790"/>
  <unicode hex="0110"/>
  <outline>
    <contour>
      <point x="122" y="347" type="line"/>
      <point x="26" y="347" type="line"/>
      <point x="26" y="414" type="line"/>
      <point x="122" y="414" type="line"/>
      <point x="122" y="739" type="line"/>
      <point x="296" y="739" type="line" smooth="yes"/>
      <point x="430" y="739"/>
      <point x="508" y="723"/>
      <point x="578" y="681" type="curve" smooth="yes"/>
      <point x="687" y="616"/>
      <point x="746" y="506"/>
      <point x="746" y="367" type="curve" smooth="yes"/>
      <point x="746" y="229"/>
      <point x="687" y="121"/>
      <point x="575" y="55" type="curve" smooth="yes"/>
      <point x="510" y="17"/>
      <point x="432" y="0"/>
      <point x="321" y="0" type="curve" smooth="yes"/>
      <point x="122" y="0" type="line"/>
    </contour>
    <contour>
      <point x="196" y="347" type="line"/>
      <point x="196" y="67" type="line"/>
      <point x="299" y="67" type="line" smooth="yes"/>
      <point x="430" y="67"/>
      <point x="506" y="86"/>
      <point x="565" y="133" type="curve" smooth="yes"/>
      <point x="633" y="188"/>
      <point x="671" y="273"/>
      <point x="671" y="370" type="curve" smooth="yes"/>
      <point x="671" y="480"/>
      <point x="622" y="573"/>
      <point x="537" y="624" type="curve" smooth="yes"/>
      <point x="481" y="658"/>
      <point x="411" y="672"/>
      <point x="299" y="672" type="curve" smooth="yes"/>
      <point x="196" y="672" type="line"/>
      <point x="196" y="414" type="line"/>
      <point x="401" y="414" type="line"/>
      <point x="401" y="347" type="line"/>
    </contour>
  </outline>
</glyph>
<glyph name="Emacron" format="1">
  <advance width="536"/>
  <unicode hex="0112"/>
  <outline>
    <contour>
      <point x="76" y="0" type="line"/>
      <point x="76" y="739" type="line"/>
      <point x="480" y="739" type="line"/>
      <point x="480" y="672" type="line"/>
      <point x="150" y="672" type="line"/>
      <point x="150" y="407" type="line"/>
      <point x="469" y="407" type="line"/>
      <point x="469" y="340" type="line"/>
      <point x="150" y="340" type="line"/>
      <point x="150" y="67" type="line"/>
      <point x="480" y="67" type="line"/>
      <point x="480" y="0" type="line"/>
    </contour>
    <contour>
      <point x="100" y="889" type="line"/>
      <point x="437" y="889" type="line"/>
      <point x="437" y="825" type="line"/>
      <point x="100" y="825" type="line"/>
    </contour>
  </outline>
</glyph>
<glyph name="Eogonek" format="1">
  <advance width="536"/>
  <unicode hex="0118"/>
  <outline>
    <contour>
      <point x="76" y="739" type="line"/>
      <point x="480" y="739" type="line"/>
      <point x="480" y="672" type="line"/>
      <point x="150" y="672" type="line"/>
      <point x="150" y="407" type="line"/>
      <point x="469" y="407" type="line"/>
      <point x="469" y="340" type="line"/>
      <point x="150" y="340" type="line"/>
      <point x="150" y="67" type="line"/>
      <point x="480" y="67" type="line"/>
      <point x="480" y="0" type="line"/>
      <point x="436" y="-32"/>
      <point x="407" y="-70"/>
      <point x="407" y="-97" type="curve" smooth="yes"/>
      <point x="407" y="-126"/>
      <point x="432" y="-146"/>
      <point x="466" y="-146" type="curve" smooth="yes"/>
      <point x="482" y="-146"/>
      <point x="496" y="-143"/>
      <point x="511" y="-136" type="curve"/>
      <point x="511" y="-182" type="line"/>
      <point x="492" y="-188"/>
      <point x="476" y="-191"/>
      <point x="460" y="-191" type="curve" smooth="yes"/>
      <point x="400" y="-191"/>
      <point x="357" y="-153"/>
      <point x="357" y="-101" type="curve" smooth="yes"/>
      <point x="357" y="-60"/>
      <point x="377" y="-31"/>
      <point x="428" y="0" type="curve"/>
      <point x="76" y="0" type="line"/>
    </contour>
  </outline>
</glyph>
<glyph name="hcircumflex" format="1">
  <advance width="610"/>
  <unicode hex="0125"/>
  <outline>
    <contour>
      <point x="105" y="839" type="line"/>
      <point x="250" y="965" type="line"/>
      <point x="316" y="965" type="line"/>
      <point x="459" y="839" type="line"/>
      <point x="370" y="839" type="line"/>
      <point x="284" y="913" type="line"/>
      <point x="196" y="839" type="line"/>
    </contour>
    <contour>
      <point x="63" y="0" type="line"/>
      <point x="63" y="739" type="line"/>
      <point x="137" y="739" type="line"/>
      <point x="137" y="476" type="line"/>
      <point x="174" y="530"/>
      <point x="236" y="560"/>
      <point x="311" y="560" type="curve" smooth="yes"/>
      <point x="390" y="560"/>
      <point x="459" y="529"/>
      <point x="500" y="475" type="curve" smooth="yes"/>
      <point x="532" y="432"/>
      <point x="547" y="376"/>
      <point x="547" y="294" type="curve" smooth="yes"/>
      <point x="547" y="0" type="line"/>
      <point x="473" y="0" type="line"/>
      <point x="473" y="294" type="line" smooth="yes"/>
      <point x="473" y="358"/>
      <point x="462" y="400"/>
      <point x="436" y="432" type="curve" smooth="yes"/>
      <point x="407" y="469"/>
      <point x="357" y="492"/>
      <point x="304" y="492" type="curve" smooth="yes"/>
      <point x="248" y="492"/>
      <point x="197" y="467"/>
      <point x="167" y="424" type="curve" smooth="yes"/>
      <point x="145" y="394"/>
      <point x="137" y="359"/>
      <point x="137" y="300" type="curve" smooth="yes"/>
      <point x="137" y="0" type="line"/>
    </contour>
  </outline>
</glyph>
<glyph name="Hbar" format="1">
  <advance width="683"/>
  <unicode hex="0126"/>
  <outline>
    <contour>
      <point x="607" y="565" type="line"/>
      <point x="607" y="0" type="line"/>
      <point x="533" y="0" type="line"/>
      <point x="533" y="347" type="line"/>
      <point x="150" y="347" type="line"/>
      <point x="150" y="0" type="line"/>
      <point x="76" y="0" type="line"/>
      <point x="76" y="565" type="line"/>
      <point x="12" y="565" type="line"/>
      <point x="12" y="629" type="line"/>
      <point x="76" y="629" type="line"/>
      <point x="76" y="739" type="line"/>
      <point x="150" y="739" type="line"/>
      <point x="150" y="629" type="line"/>
      <point x="533" y="629" type="line"/>
      <point x="533" y="739" type="line"/>
      <point x="607" y="739" type="line"/>
      <point x="607" y="629" type="line"/>
      <point x="674" y="629" type="line"/>
      <point x="674" y="565" type="line"/>
    </contour>
    <contour>
      <point x="533" y="565" type="line"/>
      <point x="150" y="565" type="line"/>
      <point x="150" y="414" type="line"/>
      <point x="533" y="414" type="line"/>
    </contour>
  </outline>
</glyph>
<glyph name="Imacron" format="1">
  <advance width="226"/>
  <unicode hex="012A"/>
  <outline>
    <contour>
      <point x="76" y="0" type="line"/>
      <point x="76" y="739" type="line"/>
      <point x="150" y="739" type="line"/>
      <point x="150" y="0" type="line"/>
    </contour>
    <contour>
      <point x="-56" y="889" type="line"/>
      <point x="281" y="889" type="line"/>
      <point x="281" y="825" type="line"/>
      <point x="-56" y="825" type="line"/>
    </contour>
  </outline>
</glyph>
<glyph name="iogonek" format="1">
  <advance width="200"/>
  <unicode hex="012F"/>
  <outline>
    <contour>
      <point x="137" y="547" type="line"/>
      <point x="137" y="0" type="line"/>
      <point x="122" y="-11"/>
      <point x="111" y="-20"/>
      <point x="96" y="-37" type="curve" smooth="yes"/>
      <point x="72" y="-63"/>
      <point x="64" y="-78"/>
      <point x="64" y="-97" type="curve" smooth="yes"/>
      <point x="64" y="-126"/>
      <point x="89" y="-146"/>
      <point x="123" y="-146" type="curve" smooth="yes"/>
      <point x="139" y="-146"/>
      <point x="153" y="-143"/>
      <point x="168" y="-136" type="curve"/>
      <point x="168" y="-182" type="line"/>
      <point x="149" y="-188"/>
      <point x="133" y="-191"/>
      <point x="117" y="-191" type="curve" smooth="yes"/>
      <point x="57" y="-191"/>
      <point x="14" y="-153"/>
      <point x="14" y="-101" type="curve" smooth="yes"/>
      <point x="14" y="-60"/>
      <point x="34" y="-31"/>
      <point x="85" y="0" type="curve"/>
      <point x="63" y="0" type="line"/>
      <point x="63" y="547" type="line"/>
    </contour>
    <contour>
      <point x="63" y="613" type="line"/>
      <point x="63" y="739" type="line"/>
      <point x="137" y="739" type="line"/>
      <point x="137" y="613" type="line"/>
    </contour>
  </outline>
</glyph>
<glyph name="Idotaccent" format="1">
  <advance width="226"/>
  <unicode hex="0130"/>
  <outline>
    <contour>
      <point x="76" y="0" type="line"/>
      <point x="76" y="739" type="line"/>
      <point x="150" y="739" type="line"/>
      <point x="150" y="0" type="line"/>
    </contour>
    <contour>
      <point x="76" y="931" type="line"/>
      <point x="150" y="931" type="line"/>
      <point x="150" y="805" type="line"/>
      <point x="76" y="805" type="line"/>
    </contour>
  </outline>
</glyph>
<glyph name="jcircumflex" format="1">
  <advance width="203"/>
  <unicode hex="0135"/>
  <outline>
    <contour>
      <point x="140" y="547" type="line"/>
      <point x="140" y="38" type="line" smooth="yes"/>
      <point x="140" y="-69"/>
      <point x="123" y="-115"/>
      <point x="70" y="-155" type="curve" smooth="yes"/>
      <point x="37" y="-179"/>
      <point x="3" y="-190"/>
      <point x="-45" y="-192" type="curve"/>
      <point x="-45" y="-121" type="line"/>
      <point x="38" y="-116"/>
      <point x="66" y="-76"/>
      <point x="66" y="38" type="curve" smooth="yes"/>
      <point x="66" y="547" type="line"/>
    </contour>
    <contour>
      <point x="-74" y="651" type="line"/>
      <point x="71" y="777" type="line"/>
      <point x="137" y="777" type="line"/>
      <point x="280" y="651" type="line"/>
      <point x="191" y="651" type="line"/>
      <point x="105" y="725" type="line"/>
      <point x="17" y="651" type="line"/>
    </contour>
  </outline>
</glyph>
<glyph name="Kcommaaccent" format="1">
  <advance width="591"/>
  <unicode hex="0136"/>
  <outline>
    <contour>
      <point x="76" y="0" type="line"/>
      <point x="76" y="739" type="line"/>
      <point x="150" y="739" type="line"/>
      <point x="150" y="314" type="line"/>
      <point x="492" y="739" type="line"/>
      <point x="585" y="739" type="line"/>
      <point x="293" y="379" type="line"/>
      <point x="585" y="0" type="line"/>
      <point x="492" y="0" type="line"/>
      <point x="246" y="320" type="line"/>
      <point x="150" y="202" type="line"/>
      <point x="150" y="0" type="line"/>
    </contour>
    <contour>
      <point x="221" y="-225" type="line"/>
      <point x="269" y="-53" type="line"/>
      <point x="343" y="-53" type="line"/>
      <point x="295" y="-225" type="line"/>
    </contour>
  </outline>
</glyph>
<glyph name="Lacute" format="1">
  <advance width="462"/>
  <unicode hex="0139"/>
  <outline>
    <contour>
      <point x="76" y="0" type="line"/>
      <point x="76" y="739" type="line"/>
      <point x="150" y="739" type="line"/>
      <point x="150" y="67" type="line"/>
      <point x="456" y="67" type="line"/>
      <point x="456" y="0" type="line"/>
    </contour>
    <contour>
      <point x="118" y="848" type="line"/>
      <point x="311" y="964" type="line"/>
      <point x="345" y="906" type="line"/>
      <point x="152" y="792" type="line"/>
    </contour>
  </outline>
</glyph>
<glyph name="lcommaaccent" format="1">
  <advance width="200"/>
  <unicode hex="013C"/>
  <outline>
    <contour>
      <point x="63" y="0" type="line"/>
      <point x="63" y="739" type="line"/>
      <point x="137" y="739" type="line"/>
      <point x="137" y="0" type="line"/>
    </contour>
    <contour>
      <point x="26" y="-225" type="line"/>
      <point x="74" y="-53" type="line"/>
      <point x="148" y="-53" type="line"/>
      <point x="100" y="-225" type="line"/>
    </contour>
  </outline>
</glyph>
<glyph name="Lcaron" format="1">
  <advance width="462"/>
  <unicode hex="013D"/>
  <outline>
    <contour>
      <point x="76" y="0" type="line"/>
      <point x="76" y="739" type="line"/>
      <point x="150" y="739" type="line"/>
      <point x="150" y="67" type="line"/>
      <point x="456" y="67" type="line"/>
      <point x="456" y="0" type="line"/>
    </contour>
    <contour>
      <point x="273" y="547" type="line"/>
      <point x="321" y="739" type="line"/>
      <point x="395" y="739" type="line"/>
      <point x="347" y="547" type="line"/>
    </contour>
  </outline>
</glyph>
<glyph name="eng" format="1">
  <advance width="610"/>
  <unicode hex="014B"/>
  <outline>
    <contour>
      <point x="547" y="95" type="line" smooth="yes"/>
      <point x="547" y="9"/>
      <point x="535" y="-61"/>
      <point x="515" y="-98" type="curve" smooth="yes"/>
      <point x="495" y="-135"/>
      <point x="470" y="-168"/>
      <point x="443" y="-179" type="curve" smooth="yes"/>
      <point x="417" y="-190"/>
      <point x="358" y="-201"/>
      <point x="309" y="-201" type="curve"/>
      <point x="309" y="-139" type="line"/>
      <point x="383" y="-139"/>
      <point x="413" y="-123"/>
      <point x="432" y="-101" type="curve" smooth="yes"/>
      <point x="462" y="-67"/>
      <point x="473" y="-21"/>
      <point x="473" y="55" type="curve" smooth="yes"/>
      <point x="473" y="287" type="line" smooth="yes"/>
      <point x="473" y="359"/>
      <point x="463" y="399"/>
      <point x="437" y="433" type="curve"/>
      <point x="407" y="470"/>
      <point x="358" y="492"/>
      <point x="304" y="492" type="curve" smooth="yes"/>
      <point x="246" y="492"/>
      <point x="195" y="467"/>
      <point x="166" y="425" type="curve" smooth="yes"/>
      <point x="145" y="394"/>
      <point x="137" y="362"/>
      <point x="137" y="301" type="curve" smooth="yes"/>
      <point x="137" y="0" type="line"/>
      <point x="63" y="0" type="line"/>
      <point x="63" y="547" type="line"/>
      <point x="137" y="547" type="line"/>
      <point x="137" y="476" type="line"/>
      <point x="183" y="532"/>
      <point x="241" y="560"/>
      <point x="313" y="560" type="curve" smooth="yes"/>
      <point x="390" y="560"/>
      <point x="456" y="529"/>
      <point x="499" y="475" type="curve"/>
      <point x="534" y="428"/>
      <point x="547" y="379"/>
      <point x="547" y="287" type="curve" smooth="yes"/>
    </contour>
  </outline>
</glyph>
<glyph name="obreve" format="1">
  <advance width="655"/>
  <unicode hex="014F"/>
  <outline>
    <contour>
      <point x="176" y="767" type="curve"/>
      <point x="240" y="767" type="line"/>
      <point x="244" y="742"/>
      <point x="251" y="731"/>
      <point x="266" y="721" type="curve"/>
      <point x="284" y="711"/>
      <point x="306" y="705"/>
      <point x="328" y="705" type="curve" smooth="yes"/>
      <point x="350" y="705"/>
      <point x="372" y="711"/>
      <point x="390" y="721" type="curve"/>
      <point x="405" y="731"/>
      <point x="412" y="742"/>
      <point x="416" y="767" type="curve"/>
      <point x="480" y="767" type="line"/>
      <point x="471" y="718"/>
      <point x="459" y="696"/>
      <point x="431" y="676" type="curve" smooth="yes"/>
      <point x="405" y="657"/>
      <point x="370" y="647"/>
      <point x="328" y="647" type="curve" smooth="yes"/>
      <point x="239" y="647"/>
      <point x="191" y="685"/>
    </contour>
    <contour>
      <point x="329" y="560" type="curve" smooth="yes"/>
      <point x="493" y="560"/>
      <point x="613" y="439"/>
      <point x="613" y="272" type="curve" smooth="yes"/>
      <point x="613" y="108"/>
      <point x="495" y="-13"/>
      <point x="335" y="-13" type="curve" smooth="yes"/>
      <point x="165" y="-13"/>
      <point x="42" y="109"/>
      <point x="42" y="277" type="curve" smooth="yes"/>
      <point x="42" y="437"/>
      <point x="167" y="560"/>
    </contour>
    <contour>
      <point x="329" y="492" type="curve" smooth="yes"/>
      <point x="208" y="492"/>
      <point x="117" y="399"/>
      <point x="117" y="275" type="curve" smooth="yes"/>
      <point x="117" y="147"/>
      <point x="207" y="55"/>
      <point x="333" y="55" type="curve" smooth="yes"/>
      <point x="452" y="55"/>
      <point x="538" y="146"/>
      <point x="538" y="271" type="curve" smooth="yes"/>
      <point x="538" y="398"/>
      <point x="449" y="492"/>
    </contour>
  </outline>
</glyph>
<glyph name="OE" format="1">
  <advance width="1194"/>
  <unicode hex="0152"/>
  <outline>
    <contour>
      <point x="745" y="739" type="line"/>
      <point x="1138" y="739" type="line"/>
      <point x="1138" y="672" type="line"/>
      <point x="819" y="672" type="line"/>
      <point x="819" y="407" type="line"/>
      <point x="1127" y="407" type="line"/>
      <point x="1127" y="340" type="line"/>
      <point x="819" y="340" type="line"/>
      <point x="819" y="67" type="line"/>
      <point x="1138" y="67" type="line"/>
      <point x="1138" y="0" type="line"/>
      <point x="745" y="0" type="line"/>
      <point x="745" y="151" type="line"/>
      <point x="683" y="44"/>
      <point x="579" y="-13"/>
      <point x="445" y="-13" type="curve" smooth="yes"/>
      <point x="214" y="-13"/>
      <point x="44" y="150"/>
      <point x="44" y="371" type="curve" smooth="yes"/>
      <point x="44" y="589"/>
      <point x="210" y="752"/>
      <point x="432" y="752" type="curve" smooth="yes"/>
      <point x="570" y="752"/>
      <point x="683" y="695"/>
      <point x="745" y="592" type="curve"/>
    </contour>
    <contour>
      <point x="432" y="684" type="curve" smooth="yes"/>
      <point x="339" y="684"/>
      <point x="260" y="652"/>
      <point x="202" y="590" type="curve"/>
      <point x="151" y="534"/>
      <point x="119" y="453"/>
      <point x="119" y="375" type="curve" smooth="yes"/>
      <point x="119" y="191"/>
      <point x="255" y="55"/>
      <point x="439" y="55" type="curve" smooth="yes"/>
      <point x="616" y="55"/>
      <point x="746" y="189"/>
      <point x="746" y="372" type="curve" smooth="yes"/>
      <point x="746" y="553"/>
      <point x="614" y="684"/>
    </contour>
  </outline>
</glyph>
<glyph name="rcaron" format="1">
  <advance width="301"/>
  <unicode hex="0159"/>
  <outline>
    <contour>
      <point x="63" y="0" type="line"/>
      <point x="63" y="547" type="line"/>
      <point x="137" y="547" type="line"/>
      <point x="137" y="469" type="line"/>
      <point x="166" y="529"/>
      <point x="213" y="556"/>
      <point x="292" y="560" type="curve"/>
      <point x="292" y="487" type="line"/>
      <point x="189" y="477"/>
      <point x="137" y="421"/>
      <point x="137" y="319" type="curve" smooth="yes"/>
      <point x="137" y="0" type="line"/>
    </contour>
    <contour>
      <point x="364" y="749" type="line"/>
      <point x="219" y="623" type="line"/>
      <point x="153" y="623" type="line"/>
      <point x="10" y="749" type="line"/>
      <point x="99" y="749" type="line"/>
      <point x="185" y="675" type="line"/>
      <point x="273" y="749" type="line"/>
    </contour>
  </outline>
</glyph>
<glyph name="scircumflex" format="1">
  <advance width="388"/>
  <unicode hex="015D"/>
  <outline>
    <contour>
      <point x="53" y="647" type="line"/>
      <point x="198" y="773" type="line"/>
      <point x="264" y="773" type="line"/>
      <point x="407" y="647" type="line"/>
      <point x="318" y="647" type="line"/>
      <point x="232" y="721" type="line"/>
      <point x="144" y="647" type="line"/>
    </contour>
    <contour>
      <point x="18" y="161" type="curve"/>
      <point x="91" y="161" type="line"/>
      <point x="95" y="94"/>
      <point x="133" y="55"/>
      <point x="194" y="55" type="curve" smooth="yes"/>
      <point x="247" y="55"/>
      <point x="286" y="95"/>
      <point x="286" y="150" type="curve" smooth="yes"/>
      <point x="286" y="180"/>
      <point x="273" y="206"/>
      <point x="251" y="221" type="curve" smooth="yes"/>
      <point x="237" y="230"/>
      <point x="213" y="242"/>
      <point x="180" y="255" type="curve" smooth="yes"/>
      <point x="103" y="287"/>
      <point x="102" y="287"/>
      <point x="79" y="308" type="curve" smooth="yes"/>
      <point x="52" y="333"/>
      <point x="38" y="367"/>
      <point x="38" y="406" type="curve" smooth="yes"/>
      <point x="38" y="495"/>
      <point x="104" y="560"/>
      <point x="193" y="560" type="curve" smooth="yes"/>
      <point x="281" y="560"/>
      <point x="344" y="500"/>
      <point x="347" y="412" type="curve"/>
      <point x="272" y="412" type="line"/>
      <point x="268" y="464"/>
      <point x="240" y="492"/>
      <point x="192" y="492" type="curve" smooth="yes"/>
      <point x="148" y="492"/>
      <point x="113" y="457"/>
      <point x="113" y="413" type="curve" smooth="yes"/>
      <point x="113" y="381"/>
      <point x="129" y="358"/>
      <point x="163" y="341" type="curve" smooth="yes"/>
      <point x="179" y="333"/>
      <point x="183" y="331"/>
      <point x="266" y="297" type="curve" smooth="yes"/>
      <point x="330" y="270"/>
      <point x="361" y="224"/>
      <point x="361" y="157" type="curve" smooth="yes"/>
      <point x="361" y="57"/>
      <point x="292" y="-13"/>
      <point x="194" y="-13" type="curve" smooth="yes"/>
      <point x="89" y="-13"/>
      <point x="19" y="55"/>
    </contour>
  </outline>
</glyph>
<glyph name="Scedilla" format="1">
  <advance width="498"/>
  <unicode hex="015E"/>
  <outline>
    <contour>
      <point x="242" y="-13" type="line"/>
      <point x="228" y="-47" type="line"/>
      <point x="243" y="-41"/>
      <point x="250" y="-39"/>
      <point x="261" y="-39" type="curve" smooth="yes"/>
      <point x="306" y="-39"/>
      <point x="337" y="-72"/>
      <point x="337" y="-120" type="curve" smooth="yes"/>
      <point x="337" y="-174"/>
      <point x="300" y="-213"/>
      <point x="249" y="-213" type="curve" smooth="yes"/>
      <point x="203" y="-213"/>
      <point x="172" y="-187"/>
      <point x="161" y="-140" type="curve"/>
      <point x="205" y="-135" type="line"/>
      <point x="211" y="-157"/>
      <point x="227" y="-170"/>
      <point x="250" y="-170" type="curve" smooth="yes"/>
      <point x="276" y="-170"/>
      <point x="294" y="-151"/>
      <point x="294" y="-124" type="curve" smooth="yes"/>
      <point x="294" y="-94"/>
      <point x="275" y="-72"/>
      <point x="248" y="-72" type="curve" smooth="yes"/>
      <point x="231" y="-72"/>
      <point x="219" y="-79"/>
      <point x="205" y="-96" type="curve"/>
      <point x="176" y="-79" type="line"/>
      <point x="207" y="-9" type="line"/>
      <point x="97" y="11"/>
      <point x="24" y="96"/>
      <point x="22" y="207" type="curve"/>
      <point x="101" y="207" type="line"/>
      <point x="106" y="161"/>
      <point x="115" y="136"/>
      <point x="136" y="110" type="curve" smooth="yes"/>
      <point x="163" y="76"/>
      <point x="208" y="55"/>
      <point x="255" y="55" type="curve" smooth="yes"/>
      <point x="339" y="55"/>
      <point x="401" y="117"/>
      <point x="401" y="202" type="curve" smooth="yes"/>
      <point x="401" y="247"/>
      <point x="383" y="285"/>
      <point x="350" y="308" type="curve" smooth="yes"/>
      <point x="326" y="325"/>
      <point x="294" y="339"/>
      <point x="236" y="357" type="curve" smooth="yes"/>
      <point x="150" y="383"/>
      <point x="127" y="394"/>
      <point x="98" y="422" type="curve" smooth="yes"/>
      <point x="65" y="453"/>
      <point x="46" y="502"/>
      <point x="46" y="553" type="curve" smooth="yes"/>
      <point x="46" y="668"/>
      <point x="132" y="752"/>
      <point x="251" y="752" type="curve" smooth="yes"/>
      <point x="372" y="752"/>
      <point x="455" y="672"/>
      <point x="458" y="552" type="curve"/>
      <point x="381" y="552" type="line"/>
      <point x="376" y="632"/>
      <point x="324" y="684"/>
      <point x="249" y="684" type="curve" smooth="yes"/>
      <point x="175" y="684"/>
      <point x="121" y="629"/>
      <point x="121" y="555" type="curve" smooth="yes"/>
      <point x="121" y="521"/>
      <point x="135" y="488"/>
      <point x="156" y="469" type="curve" smooth="yes"/>
      <point x="176" y="452"/>
      <point x="198" y="443"/>
      <point x="265" y="423" type="curve" smooth="yes"/>
      <point x="341" y="400"/>
      <point x="372" y="386"/>
      <point x="402" y="364" type="curve" smooth="yes"/>
      <point x="449" y="329"/>
      <point x="476" y="271"/>
      <point x="476" y="206" type="curve" smooth="yes"/>
      <point x="476" y="81"/>
      <point x="381" y="-13"/>
      <point x="255" y="-13" type="curve" smooth="yes"/>
    </contour>
  </outline>
</glyph>
<glyph name="Tcaron" format="1">
  <advance width="426"/>
  <unicode hex="0164"/>
  <outline>
    <contour>
      <point x="176" y="0" type="line"/>
      <point x="176" y="672" type="line"/>
      <point x="7" y="672" type="line"/>
      <point x="7" y="739" type="line"/>
      <point x="419" y="739" type="line"/>
      <point x="419" y="672" type="line"/>
      <point x="250" y="672" type="line"/>
      <point x="250" y="0" type="line"/>
    </contour>
    <contour>
      <point x="390" y="931" type="line"/>
      <point x="245" y="805" type="line"/>
      <point x="179" y="805" type="line"/>
      <point x="36" y="931" type="line"/>
      <point x="125" y="931" type="line"/>
      <point x="211" y="857" type="line"/>
      <point x="299" y="931" type="line"/>
    </contour>
  </outline>
</glyph>
<glyph name="Tbar" format="1">
  <advance width="426"/>
  <unicode hex="0166"/>
  <outline>
    <contour>
      <point x="250" y="421" type="line"/>
      <point x="250" y="0" type="line"/>
      <point x="176" y="0" type="line"/>
      <point x="176" y="421" type="line"/>
      <point x="7" y="421" type="line"/>
      <point x="7" y="485" type="line"/>
      <point x="176" y="485" type="line"/>
      <point x="176" y="672" type="line"/>
      <point x="7" y="672" type="line"/>
      <point x="7" y="739" type="line"/>
      <point x="419" y="739" type="line"/>
      <point x="419" y="672" type="line"/>
      <point x="250" y="672" type="line"/>
      <point x="250" y="485" type="line"/>
      <point x="419" y="485" type="line"/>
      <point x="419" y="421" type="line"/>
    </contour>
  </outline>
</glyph>
<glyph name="Uring" format="1">
  <advance width="655"/>
  <unicode hex="016E"/>
  <outline>
    <contour>
      <point x="76" y="739" type="line"/>
      <point x="150" y="739" type="line"/>
      <point x="150" y="278" type="line" smooth="yes"/>
      <point x="150" y="211"/>
      <point x="161" y="160"/>
      <point x="184" y="125" type="curve" smooth="yes"/>
      <point x="212" y="82"/>
      <point x="267" y="55"/>
      <point x="328" y="55" type="curve" smooth="yes"/>
      <point x="388" y="55"/>
      <point x="443" y="82"/>
      <point x="471" y="125" type="curve" smooth="yes"/>
      <point x="494" y="160"/>
      <point x="505" y="211"/>
      <point x="505" y="278" type="curve" smooth="yes"/>
      <point x="505" y="739" type="line"/>
      <point x="579" y="739" type="line"/>
      <point x="579" y="278" type="line" smooth="yes"/>
      <point x="579" y="183"/>
      <point x="564" y="127"/>
      <point x="527" y="78" type="curve" smooth="yes"/>
      <point x="483" y="21"/>
      <point x="409" y="-13"/>
      <point x="327" y="-13" type="curve" smooth="yes"/>
      <point x="246" y="-13"/>
      <point x="172" y="21"/>
      <point x="128" y="78" type="curve" smooth="yes"/>
      <point x="91" y="127"/>
      <point x="76" y="183"/>
      <point x="76" y="278" type="curve" smooth="yes"/>
    </contour>
    <contour>
      <point x="328" y="976" type="curve" smooth="yes"/>
      <point x="378" y="976"/>
      <point x="419" y="934"/>
      <point x="419" y="884" type="curve" smooth="yes"/>
      <point x="419" y="833"/>
      <point x="378" y="792"/>
      <point x="327" y="792" type="curve" smooth="yes"/>
      <point x="276" y="792"/>
      <point x="235" y="833"/>
      <point x="235" y="883" type="curve" smooth="yes"/>
      <point x="235" y="935"/>
      <point x="276" y="976"/>
    </contour>
    <contour>
      <point x="327" y="935" type="curve" smooth="yes"/>
      <point x="299" y="935"/>
      <point x="276" y="912"/>
      <point x="276" y="883" type="curve" smooth="yes"/>
      <point x="276" y="856"/>
      <point x="299" y="833"/>
      <point x="327" y="833" type="curve" smooth="yes"/>
      <point x="355" y="833"/>
      <point x="378" y="856"/>
      <point x="378" y="884" type="curve" smooth="yes"/>
      <point x="378" y="911"/>
      <point x="355" y="935"/>
    </contour>
  </outline>
</glyph>
<glyph name="uring" format="1">
  <advance width="608"/>
  <unicode hex="016F"/>
  <outline>
    <contour>
      <point x="545" y="547" type="line"/>
      <point x="545" y="0" type="line"/>
      <point x="471" y="0" type="line"/>
      <point x="471" y="85" type="line"/>
      <point x="434" y="17"/>
      <point x="380" y="-13"/>
      <point x="295" y="-13" type="curve" smooth="yes"/>
      <point x="213" y="-13"/>
      <point x="147" y="17"/>
      <point x="106" y="74" type="curve" smooth="yes"/>
      <point x="77" y="114"/>
      <point x="63" y="171"/>
      <point x="63" y="252" type="curve" smooth="yes"/>
      <point x="63" y="547" type="line"/>
      <point x="137" y="547" type="line"/>
      <point x="137" y="252" type="line" smooth="yes"/>
      <point x="137" y="196"/>
      <point x="146" y="152"/>
      <point x="163" y="124" type="curve" smooth="yes"/>
      <point x="188" y="80"/>
      <point x="240" y="55"/>
      <point x="301" y="55" type="curve" smooth="yes"/>
      <point x="358" y="55"/>
      <point x="407" y="80"/>
      <point x="438" y="123" type="curve"/>
      <point x="461" y="157"/>
      <point x="471" y="199"/>
      <point x="471" y="266" type="curve" smooth="yes"/>
      <point x="471" y="547" type="line"/>
    </contour>
    <contour>
      <point x="305" y="794" type="curve" smooth="yes"/>
      <point x="355" y="794"/>
      <point x="396" y="752"/>
      <point x="396" y="702" type="curve" smooth="yes"/>
      <point x="396" y="651"/>
      <point x="355" y="610"/>
      <point x="304" y="610" type="curve" smooth="yes"/>
      <point x="253" y="610"/>
      <point x="212" y="651"/>
      <point x="212" y="701" type="curve" smooth="yes"/>
      <point x="212" y="753"/>
      <point x="253" y="794"/>
    </contour>
    <contour>
      <point x="304" y="753" type="curve" smooth="yes"/>
      <point x="276" y="753"/>
      <point x="253" y="730"/>
      <point x="253" y="701" type="curve" smooth="yes"/>
      <point x="253" y="674"/>
      <point x="276" y="651"/>
      <point x="304" y="651" type="curve" smooth="yes"/>
      <point x="332" y="651"/>
      <point x="355" y="674"/>
      <point x="355" y="702" type="curve" smooth="yes"/>
      <point x="355" y="729"/>
      <point x="332" y="753"/>
    </contour>
  </outline>
</glyph>
<glyph name="Ycircumflex" format="1">
  <advance width="592"/>
  <unicode hex="0176"/>
  <outline>
    <contour>
      <point x="119" y="839" type="line"/>
      <point x="264" y="965" type="line"/>
      <point x="330" y="965" type="line"/>
      <point x="473" y="839" type="line"/>
      <point x="384" y="839" type="line"/>
      <point x="298" y="913" type="line"/>
      <point x="210" y="839" type="line"/>
    </contour>
    <contour>
      <point x="258" y="0" type="line"/>
      <point x="258" y="247" type="line"/>
      <point x="2" y="739" type="line"/>
      <point x="84" y="739" type="line"/>
      <point x="294" y="325" type="line"/>
      <point x="509" y="739" type="line"/>
      <point x="590" y="739" type="line"/>
      <point x="332" y="247" type="line"/>
      <point x="332" y="0" type="line"/>
    </contour>
  </outline>
</glyph>
<glyph name="ycircumflex" format="1">
  <advance width="536"/>
  <unicode hex="0177"/>
  <outline>
    <contour>
      <point x="91" y="647" type="line"/>
      <point x="236" y="773" type="line"/>
      <point x="302" y="773" type="line"/>
      <point x="445" y="647" type="line"/>
      <point x="356" y="647" type="line"/>
      <point x="270" y="721" type="line"/>
      <point x="182" y="647" type="line"/>
    </contour>
    <contour>
      <point x="132" y="-192" type="line"/>
      <point x="221" y="18" type="line"/>
      <point x="9" y="547" type="line"/>
      <point x="90" y="547" type="line"/>
      <point x="263" y="111" type="line"/>
      <point x="448" y="547" type="line"/>
      <point x="527" y="547" type="line"/>
      <point x="211" y="-192" type="line"/>
    </contour>
  </outline>
</glyph>
<glyph name="breve" format="1">
  <advance width="453"/>
  <unicode hex="02D8"/>
  <outline>
    <contour>
      <point x="74" y="743" type="curve"/>
      <point x="138" y="743" type="line"/>
      <point x="142" y="718"/>
      <point x="149" y="707"/>
      <point x="164" y="697" type="curve"/>
      <point x="182" y="687"/>
      <point x="204" y="681"/>
      <point x="226" y="681" type="curve" smooth="yes"/>
      <point x="248" y="681"/>
      <point x="270" y="687"/>
      <point x="288" y="697" type="curve"/>
      <point x="303" y="707"/>
      <point x="310" y="718"/>
      <point x="314" y="743" type="curve"/>
      <point x="378" y="743" type="line"/>
      <point x="369" y="694"/>
      <point x="357" y="672"/>
      <point x="329" y="652" type="curve" smooth="yes"/>
      <point x="303" y="633"/>
      <point x="268" y="623"/>
      <point x="226" y="623" type="curve" smooth="yes"/>
      <point x="137" y="623"/>
      <point x="89" y="661"/>
    </contour>
  </outline>
</glyph>
<glyph name="afii10052" format="1">
  <advance width="517"/>
  <unicode hex="0403"/>
  <outline>
    <contour>
      <point x="244" y="868" type="line"/>
      <point x="437" y="984" type="line"/>
      <point x="471" y="926" type="line"/>
      <point x="278" y="812" type="line"/>
    </contour>
    <contour>
      <point x="150" y="0" type="line"/>
      <point x="76" y="0" type="line"/>
      <point x="76" y="739" type="line"/>
      <point x="510" y="739" type="line"/>
      <point x="510" y="672" type="line"/>
      <point x="150" y="672" type="line"/>
    </contour>
  </outline>
</glyph>
<glyph name="afii10053" format="1">
  <advance width="814"/>
  <unicode hex="0404"/>
  <outline>
    <contour>
      <point x="120" y="347" type="line"/>
      <point x="132" y="185"/>
      <point x="268" y="55"/>
      <point x="432" y="55" type="curve" smooth="yes"/>
      <point x="498" y="55"/>
      <point x="566" y="77"/>
      <point x="614" y="116" type="curve"/>
      <point x="640" y="135"/>
      <point x="658" y="155"/>
      <point x="688" y="194" type="curve"/>
      <point x="770" y="194" type="line"/>
      <point x="696" y="57"/>
      <point x="582" y="-13"/>
      <point x="432" y="-13" type="curve" smooth="yes"/>
      <point x="212" y="-13"/>
      <point x="44" y="151"/>
      <point x="44" y="367" type="curve" smooth="yes"/>
      <point x="44" y="588"/>
      <point x="208" y="752"/>
      <point x="428" y="752" type="curve" smooth="yes"/>
      <point x="580" y="752"/>
      <point x="710" y="674"/>
      <point x="768" y="547" type="curve"/>
      <point x="684" y="547" type="line"/>
      <point x="656" y="591"/>
      <point x="636" y="613"/>
      <point x="604" y="634" type="curve" smooth="yes"/>
      <point x="554" y="667"/>
      <point x="494" y="684"/>
      <point x="430" y="684" type="curve" smooth="yes"/>
      <point x="269" y="684"/>
      <point x="142" y="570"/>
      <point x="122" y="414" type="curve"/>
      <point x="548" y="414" type="line"/>
      <point x="548" y="347" type="line"/>
    </contour>
  </outline>
</glyph>
<glyph name="afii10058" format="1">
  <advance width="1021"/>
  <unicode hex="0409"/>
  <outline>
    <contour>
      <point x="640" y="67" type="line"/>
      <point x="701" y="67" type="line" smooth="yes"/>
      <point x="776" y="67"/>
      <point x="826" y="75"/>
      <point x="861" y="94" type="curve" smooth="yes"/>
      <point x="896" y="112"/>
      <point x="919" y="166"/>
      <point x="919" y="217" type="curve" smooth="yes"/>
      <point x="919" y="276"/>
      <point x="894" y="330"/>
      <point x="850" y="352" type="curve" smooth="yes"/>
      <point x="819" y="367"/>
      <point x="775" y="373"/>
      <point x="688" y="373" type="curve" smooth="yes"/>
      <point x="525" y="373" type="line"/>
    </contour>
    <contour>
      <point x="500" y="440" type="line"/>
      <point x="690" y="440" type="line" smooth="yes"/>
      <point x="736" y="440"/>
      <point x="847" y="437"/>
      <point x="895" y="410" type="curve" smooth="yes"/>
      <point x="945" y="382"/>
      <point x="994" y="311"/>
      <point x="994" y="221" type="curve" smooth="yes"/>
      <point x="994" y="145"/>
      <point x="963" y="71"/>
      <point x="911" y="39" type="curve" smooth="yes"/>
      <point x="864" y="11"/>
      <point x="808" y="0"/>
      <point x="709" y="0" type="curve" smooth="yes"/>
      <point x="587" y="0" type="line"/>
      <point x="351" y="647" type="line"/>
      <point x="116" y="0" type="line"/>
      <point x="35" y="0" type="line"/>
      <point x="314" y="739" type="line"/>
      <point x="386" y="739" type="line"/>
    </contour>
  </outline>
</glyph>
<glyph name="afii10060" format="1">
  <advance width="638"/>
  <unicode hex="040B"/>
  <outline>
    <contour>
      <point x="248" y="442" type="line"/>
      <point x="317" y="442" type="line" smooth="yes"/>
      <point x="405" y="442"/>
      <point x="470" y="442"/>
      <point x="517" y="393" type="curve" smooth="yes"/>
      <point x="563" y="345"/>
      <point x="567" y="303"/>
      <point x="567" y="189" type="curve" smooth="yes"/>
      <point x="567" y="0" type="line"/>
      <point x="493" y="0" type="line"/>
      <point x="493" y="227" type="line" smooth="yes"/>
      <point x="493" y="271"/>
      <point x="487" y="313"/>
      <point x="459" y="339" type="curve" smooth="yes"/>
      <point x="411" y="383"/>
      <point x="384" y="375"/>
      <point x="318" y="375" type="curve" smooth="yes"/>
      <point x="248" y="375" type="line"/>
      <point x="248" y="0" type="line"/>
      <point x="176" y="0" type="line"/>
      <point x="176" y="672" type="line"/>
      <point x="7" y="672" type="line"/>
      <point x="7" y="739" type="line"/>
      <point x="505" y="739" type="line"/>
      <point x="505" y="672" type="line"/>
      <point x="248" y="672" type="line"/>
    </contour>
  </outline>
</glyph>
<glyph name="afii10061" format="1">
  <advance width="591"/>
  <unicode hex="040C"/>
  <outline>
    <contour>
      <point x="284" y="868" type="line"/>
      <point x="477" y="984" type="line"/>
      <point x="511" y="926" type="line"/>
      <point x="318" y="812" type="line"/>
    </contour>
    <contour>
      <point x="150" y="0" type="line"/>
      <point x="76" y="0" type="line"/>
      <point x="76" y="739" type="line"/>
      <point x="150" y="739" type="line"/>
    </contour>
    <contour>
      <point x="477" y="0" type="line"/>
      <point x="165" y="379" type="line"/>
      <point x="467" y="739" type="line"/>
      <point x="560" y="739" type="line"/>
      <point x="258" y="379" type="line"/>
      <point x="570" y="0" type="line"/>
    </contour>
  </outline>
</glyph>
<glyph name="afii10062" format="1">
  <advance width="596"/>
  <unicode hex="040E"/>
  <outline>
    <contour>
      <point x="146" y="932" type="curve"/>
      <point x="210" y="932" type="line"/>
      <point x="214" y="907"/>
      <point x="221" y="896"/>
      <point x="236" y="886" type="curve"/>
      <point x="254" y="876"/>
      <point x="276" y="870"/>
      <point x="298" y="870" type="curve" smooth="yes"/>
      <point x="320" y="870"/>
      <point x="342" y="876"/>
      <point x="360" y="886" type="curve"/>
      <point x="375" y="896"/>
      <point x="382" y="907"/>
      <point x="386" y="932" type="curve"/>
      <point x="450" y="932" type="line"/>
      <point x="441" y="883"/>
      <point x="429" y="861"/>
      <point x="401" y="841" type="curve" smooth="yes"/>
      <point x="375" y="822"/>
      <point x="340" y="812"/>
      <point x="298" y="812" type="curve" smooth="yes"/>
      <point x="209" y="812"/>
      <point x="161" y="850"/>
    </contour>
    <contour>
      <point x="123" y="0" type="line"/>
      <point x="253" y="247" type="line"/>
      <point x="4" y="739" type="line"/>
      <point x="86" y="739" type="line"/>
      <point x="296" y="325" type="line"/>
      <point x="511" y="739" type="line"/>
      <point x="592" y="739" type="line"/>
      <point x="334" y="247" type="line"/>
      <point x="204" y="0" type="line"/>
    </contour>
  </outline>
</glyph>
<glyph name="afii10019" format="1">
  <advance width="601"/>
  <unicode hex="0412"/>
  <outline>
    <contour>
      <point x="76" y="0" type="line"/>
      <point x="76" y="739" type="line"/>
      <point x="279" y="739" type="line" smooth="yes"/>
      <point x="369" y="739"/>
      <point x="424" y="726"/>
      <point x="466" y="696" type="curve" smooth="yes"/>
      <point x="508" y="665"/>
      <point x="532" y="611"/>
      <point x="532" y="547" type="curve" smooth="yes"/>
      <point x="532" y="474"/>
      <point x="506" y="420"/>
      <point x="447" y="394" type="curve"/>
      <point x="534" y="366"/>
      <point x="574" y="302"/>
      <point x="574" y="212" type="curve" smooth="yes"/>
      <point x="574" y="59"/>
      <point x="479" y="0"/>
      <point x="286" y="0" type="curve" smooth="yes"/>
    </contour>
    <contour>
      <point x="150" y="67" type="line"/>
      <point x="281" y="67" type="line" smooth="yes"/>
      <point x="408" y="67"/>
      <point x="499" y="94"/>
      <point x="499" y="208" type="curve" smooth="yes"/>
      <point x="499" y="325"/>
      <point x="421" y="354"/>
      <point x="268" y="354" type="curve" smooth="yes"/>
      <point x="150" y="354" type="line"/>
    </contour>
    <contour>
      <point x="150" y="419" type="line"/>
      <point x="270" y="419" type="line" smooth="yes"/>
      <point x="383" y="419"/>
      <point x="457" y="441"/>
      <point x="457" y="546" type="curve" smooth="yes"/>
      <point x="457" y="654"/>
      <point x="383" y="672"/>
      <point x="258" y="672" type="curve" smooth="yes"/>
      <point x="150" y="672" type="line"/>
    </contour>
  </outline>
</glyph>
<glyph name="afii10026" format="1">
  <advance width="663"/>
  <unicode hex="0418"/>
  <outline>
    <contour>
      <point x="76" y="739" type="line"/>
      <point x="150" y="739" type="line"/>
      <point x="150" y="83" type="line"/>
      <point x="507" y="739" type="line"/>
      <point x="587" y="739" type="line"/>
      <point x="587" y="0" type="line"/>
      <point x="513" y="0" type="line"/>
      <point x="513" y="619" type="line"/>
      <point x="183" y="0" type="line"/>
      <point x="76" y="0" type="line"/>
    </contour>
  </outline>
</glyph>
<glyph name="afii10030" format="1">
  <advance width="919"/>
  <unicode hex="041C"/>
  <outline>
    <contour>
      <point x="106" y="0" type="line"/>
      <point x="106" y="739" type="line"/>
      <point x="221" y="739" type="line"/>
      <point x="460" y="110" type="line"/>
      <point x="698" y="739" type="line"/>
      <point x="813" y="739" type="line"/>
      <point x="813" y="0" type="line"/>
      <point x="739" y="0" type="line"/>
      <point x="739" y="658" type="line"/>
      <point x="491" y="0" type="line"/>
      <point x="427" y="0" type="line"/>
      <point x="180" y="658" type="line"/>
      <point x="180" y="0" type="line"/>
    </contour>
  </outline>
</glyph>
<glyph name="afii10034" format="1">
  <advance width="592"/>
  <unicode hex="0420"/>
  <outline>
    <contour>
      <point x="76" y="0" type="line"/>
      <point x="76" y="739" type="line"/>
      <point x="280" y="739" type="line" smooth="yes"/>
      <point x="375" y="739"/>
      <point x="431" y="728"/>
      <point x="477" y="700" type="curve" smooth="yes"/>
      <point x="533" y="667"/>
      <point x="565" y="600"/>
      <point x="565" y="515" type="curve" smooth="yes"/>
      <point x="565" y="441"/>
      <point x="539" y="380"/>
      <point x="491" y="345" type="curve" smooth="yes"/>
      <point x="446" y="312"/>
      <point x="392" y="299"/>
      <point x="292" y="299" type="curve" smooth="yes"/>
      <point x="150" y="299" type="line"/>
      <point x="150" y="0" type="line"/>
    </contour>
    <contour>
      <point x="150" y="366" type="line"/>
      <point x="287" y="366" type="line" smooth="yes"/>
      <point x="355" y="366"/>
      <point x="398" y="373"/>
      <point x="429" y="391" type="curve" smooth="yes"/>
      <point x="467" y="412"/>
      <point x="490" y="458"/>
      <point x="490" y="515" type="curve" smooth="yes"/>
      <point x="490" y="581"/>
      <point x="466" y="628"/>
      <point x="423" y="650" type="curve" smooth="yes"/>
      <point x="393" y="665"/>
      <point x="340" y="672"/>
      <point x="255" y="672" type="curve" smooth="yes"/>
      <point x="150" y="672" type="line"/>
    </contour>
  </outline>
</glyph>
<glyph name="afii10036" format="1">
  <advance width="526"/>
  <unicode hex="0422"/>
  <outline>
    <contour>
      <point x="226" y="0" type="line"/>
      <point x="226" y="672" type="line"/>
      <point x="7" y="672" type="line"/>
      <point x="7" y="739" type="line"/>
      <point x="519" y="739" type="line"/>
      <point x="519" y="672" type="line"/>
      <point x="300" y="672" type="line"/>
      <point x="300" y="0" type="line"/>
    </contour>
  </outline>
</glyph>
<glyph name="afii10041" format="1">
  <advance width="635"/>
  <unicode hex="0427"/>
  <outline>
    <contour>
      <point x="66" y="739" type="line"/>
      <point x="140" y="739" type="line"/>
      <point x="140" y="504" type="line" smooth="yes"/>
      <point x="140" y="362"/>
      <point x="207" y="356"/>
      <point x="312" y="356" type="curve" smooth="yes"/>
      <point x="485" y="356" type="line"/>
      <point x="485" y="739" type="line"/>
      <point x="559" y="739" type="line"/>
      <point x="559" y="0" type="line"/>
      <point x="485" y="0" type="line"/>
      <point x="485" y="289" type="line"/>
      <point x="310" y="289" type="line" smooth="yes"/>
      <point x="123" y="289"/>
      <point x="66" y="354"/>
      <point x="66" y="510" type="curve" smooth="yes"/>
    </contour>
  </outline>
</glyph>
<glyph name="afii10045" format="1">
  <advance width="804"/>
  <unicode hex="042B"/>
  <outline>
    <contour>
      <point x="150" y="474" type="line"/>
      <point x="259" y="474" type="line" smooth="yes"/>
      <point x="473" y="474"/>
      <point x="577" y="405"/>
      <point x="577" y="236" type="curve" smooth="yes"/>
      <point x="577" y="70"/>
      <point x="472" y="0"/>
      <point x="259" y="0" type="curve" smooth="yes"/>
      <point x="76" y="0" type="line"/>
      <point x="76" y="739" type="line"/>
      <point x="150" y="739" type="line"/>
    </contour>
    <contour>
      <point x="150" y="407" type="line"/>
      <point x="150" y="67" type="line"/>
      <point x="254" y="67" type="line" smooth="yes"/>
      <point x="410" y="67"/>
      <point x="502" y="104"/>
      <point x="502" y="236" type="curve" smooth="yes"/>
      <point x="502" y="370"/>
      <point x="411" y="407"/>
      <point x="254" y="407" type="curve" smooth="yes"/>
    </contour>
    <contour>
      <point x="654" y="0" type="line"/>
      <point x="654" y="739" type="line"/>
      <point x="728" y="739" type="line"/>
      <point x="728" y="0" type="line"/>
    </contour>
  </outline>
</glyph>
<glyph name="afii10067" format="1">
  <advance width="531"/>
  <unicode hex="0432"/>
  <outline>
    <contour>
      <point x="137" y="479" type="line"/>
      <point x="137" y="338" type="line"/>
      <point x="249" y="338" type="line" smooth="yes"/>
      <point x="330" y="338"/>
      <point x="343" y="381"/>
      <point x="343" y="411" type="curve" smooth="yes"/>
      <point x="343" y="441"/>
      <point x="332" y="478"/>
      <point x="252" y="479" type="curve"/>
    </contour>
    <contour>
      <point x="137" y="68" type="line"/>
      <point x="282" y="68" type="line"/>
      <point x="362" y="69"/>
      <point x="418" y="98"/>
      <point x="418" y="168" type="curve" smooth="yes"/>
      <point x="418" y="238"/>
      <point x="360" y="271"/>
      <point x="279" y="271" type="curve" smooth="yes"/>
      <point x="137" y="271" type="line"/>
    </contour>
    <contour>
      <point x="383" y="322" type="curve"/>
      <point x="449" y="296"/>
      <point x="492" y="244"/>
      <point x="492" y="168" type="curve" smooth="yes"/>
      <point x="492" y="58"/>
      <point x="403" y="0"/>
      <point x="283" y="0" type="curve" smooth="yes"/>
      <point x="63" y="0" type="line"/>
      <point x="63" y="547" type="line"/>
      <point x="253" y="547" type="line" smooth="yes"/>
      <point x="373" y="547"/>
      <point x="417" y="471"/>
      <point x="417" y="411" type="curve" smooth="yes"/>
      <point x="417" y="382"/>
      <point x="407" y="349"/>
    </contour>
  </outline>
</glyph>
<glyph name="afii10072" format="1">
  <advance width="808"/>
  <unicode hex="0436"/>
  <outline>
    <contour>
      <point x="112" y="547" type="line"/>
      <point x="325" y="272" type="line"/>
      <point x="99" y="0" type="line"/>
      <point x="7" y="0" type="line"/>
      <point x="234" y="272" type="line"/>
      <point x="21" y="547" type="line"/>
    </contour>
    <contour>
      <point x="441" y="547" type="line"/>
      <point x="441" y="0" type="line"/>
      <point x="367" y="0" type="line"/>
      <point x="367" y="547" type="line"/>
    </contour>
    <contour>
      <point x="696" y="547" type="line"/>
      <point x="787" y="547" type="line"/>
      <point x="574" y="272" type="line"/>
      <point x="801" y="0" type="line"/>
      <point x="709" y="0" type="line"/>
      <point x="483" y="272" type="line"/>
    </contour>
  </outline>
</glyph>
<glyph name="afii10073" format="1">
  <advance width="486"/>
  <unicode hex="0437"/>
  <outline>
    <contour>
      <point x="27" y="151" type="curve"/>
      <point x="94" y="151" type="line"/>
      <point x="94" y="151"/>
      <point x="137" y="55"/>
      <point x="246" y="55" type="curve" smooth="yes"/>
      <point x="328" y="55"/>
      <point x="393" y="96"/>
      <point x="393" y="151" type="curve" smooth="yes"/>
      <point x="393" y="220"/>
      <point x="332" y="255"/>
      <point x="256" y="255" type="curve" smooth="yes"/>
      <point x="184" y="255" type="line"/>
      <point x="184" y="328" type="line"/>
      <point x="256" y="328" type="line" smooth="yes"/>
      <point x="307" y="328"/>
      <point x="352" y="354"/>
      <point x="352" y="417" type="curve" smooth="yes"/>
      <point x="352" y="464"/>
      <point x="294" y="492"/>
      <point x="246" y="492" type="curve" smooth="yes"/>
      <point x="160" y="492"/>
      <point x="134" y="417"/>
      <point x="134" y="417" type="curve"/>
      <point x="67" y="417" type="line"/>
      <point x="67" y="417"/>
      <point x="102" y="560"/>
      <point x="246" y="560" type="curve" smooth="yes"/>
      <point x="356" y="560"/>
      <point x="419" y="499"/>
      <point x="419" y="417" type="curve" smooth="yes"/>
      <point x="419" y="366"/>
      <point x="386" y="312"/>
      <point x="351" y="297" type="curve"/>
      <point x="414" y="288"/>
      <point x="463" y="216"/>
      <point x="463" y="151" type="curve" smooth="yes"/>
      <point x="463" y="59"/>
      <point x="380" y="-13"/>
      <point x="246" y="-13" type="curve" smooth="yes"/>
      <point x="72" y="-13"/>
      <point x="27" y="151"/>
    </contour>
  </outline>
</glyph>
<glyph name="afii10077" format="1">
  <advance width="554"/>
  <unicode hex="043B"/>
  <outline>
    <contour>
      <point x="238" y="547" type="line"/>
      <point x="316" y="547" type="line"/>
      <point x="546" y="0" type="line"/>
      <point x="471" y="0" type="line"/>
      <point x="275" y="460" type="line"/>
      <point x="83" y="0" type="line"/>
      <point x="8" y="0" type="line"/>
    </contour>
  </outline>
</glyph>
<glyph name="afii10078" format="1">
  <advance width="720"/>
  <unicode hex="043C"/>
  <outline>
    <contour>
      <point x="583" y="457" type="line"/>
      <point x="389" y="0" type="line"/>
      <point x="321" y="0" type="line"/>
      <point x="137" y="457" type="line"/>
      <point x="137" y="0" type="line"/>
      <point x="63" y="0" type="line"/>
      <point x="63" y="547" type="line"/>
      <point x="174" y="547" type="line"/>
      <point x="358" y="87" type="line"/>
      <point x="546" y="547" type="line"/>
      <point x="657" y="547" type="line"/>
      <point x="657" y="0" type="line"/>
      <point x="583" y="0" type="line"/>
    </contour>
  </outline>
</glyph>
<glyph name="afii10084" format="1">
  <advance width="452"/>
  <unicode hex="0442"/>
  <outline>
    <contour>
      <point x="189" y="0" type="line"/>
      <point x="189" y="480" type="line"/>
      <point x="6" y="480" type="line"/>
      <point x="6" y="547" type="line"/>
      <point x="446" y="547" type="line"/>
      <point x="446" y="480" type="line"/>
      <point x="263" y="480" type="line"/>
      <point x="263" y="0" type="line"/>
    </contour>
  </outline>
</glyph>
<glyph name="afii10088" format="1">
  <advance width="560"/>
  <unicode hex="0446"/>
  <outline>
    <contour>
      <point x="63" y="547" type="line"/>
      <point x="137" y="547" type="line"/>
      <point x="137" y="67" type="line"/>
      <point x="393" y="67" type="line"/>
      <point x="393" y="547" type="line"/>
      <point x="467" y="547" type="line"/>
      <point x="467" y="67" type="line"/>
      <point x="533" y="67" type="line"/>
      <point x="533" y="-129" type="line"/>
      <point x="459" y="-129" type="line"/>
      <point x="459" y="0" type="line"/>
      <point x="63" y="0" type="line"/>
    </contour>
  </outline>
</glyph>
<glyph name="afii10091" format="1">
  <advance width="882"/>
  <unicode hex="0449"/>
  <outline>
    <contour>
      <point x="751" y="0" type="line"/>
      <point x="63" y="0" type="line"/>
      <point x="63" y="547" type="line"/>
      <point x="137" y="547" type="line"/>
      <point x="137" y="67" type="line"/>
      <point x="374" y="67" type="line"/>
      <point x="374" y="547" type="line"/>
      <point x="448" y="547" type="line"/>
      <point x="448" y="67" type="line"/>
      <point x="685" y="67" type="line"/>
      <point x="685" y="547" type="line"/>
      <point x="759" y="547" type="line"/>
      <point x="759" y="67" type="line"/>
      <point x="825" y="67" type="line"/>
      <point x="825" y="-129" type="line"/>
      <point x="751" y="-129" type="line"/>
    </contour>
  </outline>
</glyph>
<glyph name="afii10093" format="1">
  <advance width="670"/>
  <unicode hex="044B"/>
  <outline>
    <contour>
      <point x="137" y="369" type="line"/>
      <point x="279" y="369" type="line" smooth="yes"/>
      <point x="402" y="369"/>
      <point x="492" y="293"/>
      <point x="492" y="183" type="curve" smooth="yes"/>
      <point x="492" y="73"/>
      <point x="403" y="0"/>
      <point x="283" y="0" type="curve" smooth="yes"/>
      <point x="63" y="0" type="line"/>
      <point x="63" y="547" type="line"/>
      <point x="137" y="547" type="line"/>
    </contour>
    <contour>
      <point x="137" y="67" type="line"/>
      <point x="282" y="67" type="line"/>
      <point x="362" y="68"/>
      <point x="418" y="113"/>
      <point x="418" y="183" type="curve" smooth="yes"/>
      <point x="418" y="253"/>
      <point x="360" y="301"/>
      <point x="279" y="301" type="curve" smooth="yes"/>
      <point x="137" y="301" type="line"/>
    </contour>
    <contour>
      <point x="533" y="0" type="line"/>
      <point x="533" y="547" type="line"/>
      <point x="607" y="547" type="line"/>
      <point x="607" y="0" type="line"/>
    </contour>
  </outline>
</glyph>
<glyph name="afii10096" format="1">
  <advance width="853"/>
  <unicode hex="044E"/>
  <outline>
    <contour>
      <point x="136" y="240" type="line"/>
      <point x="136" y="0" type="line"/>
      <point x="63" y="0" type="line"/>
      <point x="63" y="547" type="line"/>
      <point x="136" y="547" type="line"/>
      <point x="136" y="307" type="line"/>
      <point x="241" y="307" type="line"/>
      <point x="256" y="452"/>
      <point x="375" y="560"/>
      <point x="527" y="560" type="curve" smooth="yes"/>
      <point x="691" y="560"/>
      <point x="811" y="439"/>
      <point x="811" y="272" type="curve" smooth="yes"/>
      <point x="811" y="108"/>
      <point x="693" y="-13"/>
      <point x="533" y="-13" type="curve" smooth="yes"/>
      <point x="376" y="-13"/>
      <point x="259" y="91"/>
      <point x="242" y="240" type="curve"/>
    </contour>
    <contour>
      <point x="527" y="492" type="curve" smooth="yes"/>
      <point x="406" y="492"/>
      <point x="315" y="399"/>
      <point x="315" y="275" type="curve" smooth="yes"/>
      <point x="315" y="147"/>
      <point x="405" y="55"/>
      <point x="531" y="55" type="curve" smooth="yes"/>
      <point x="650" y="55"/>
      <point x="736" y="146"/>
      <point x="736" y="271" type="curve" smooth="yes"/>
      <point x="736" y="398"/>
      <point x="647" y="492"/>
    </contour>
  </outline>
</glyph>
<glyph name="afii10097" format="1">
  <advance width="534"/>
  <unicode hex="044F"/>
  <outline>
    <contour>
      <point x="212" y="185" type="line"/>
      <point x="123" y="207"/>
      <point x="63" y="274"/>
      <point x="63" y="364" type="curve" smooth="yes"/>
      <point x="63" y="474"/>
      <point x="152" y="547"/>
      <point x="272" y="547" type="curve" smooth="yes"/>
      <point x="492" y="547" type="line"/>
      <point x="492" y="0" type="line"/>
      <point x="418" y="0" type="line"/>
      <point x="418" y="480" type="line"/>
      <point x="273" y="480" type="line"/>
      <point x="193" y="479"/>
      <point x="137" y="434"/>
      <point x="137" y="364" type="curve" smooth="yes"/>
      <point x="137" y="294"/>
      <point x="195" y="246"/>
      <point x="276" y="246" type="curve" smooth="yes"/>
      <point x="354" y="246" type="line"/>
      <point x="150" y="0" type="line"/>
      <point x="58" y="0" type="line"/>
    </contour>
  </outline>
</glyph>
<glyph name="afii10100" format="1">
  <advance width="419"/>
  <unicode hex="0453"/>
  <outline>
    <contour>
      <point x="180" y="676" type="line"/>
      <point x="373" y="792" type="line"/>
      <point x="407" y="734" type="line"/>
      <point x="214" y="620" type="line"/>
    </contour>
    <contour>
      <point x="63" y="0" type="line"/>
      <point x="63" y="547" type="line"/>
      <point x="414" y="547" type="line"/>
      <point x="414" y="479" type="line"/>
      <point x="136" y="479" type="line"/>
      <point x="136" y="0" type="line"/>
    </contour>
  </outline>
</glyph>
<glyph name="afii10107" format="1">
  <advance width="722"/>
  <unicode hex="045A"/>
  <outline>
    <contour>
      <point x="319" y="0" type="line"/>
      <point x="319" y="270" type="line"/>
      <point x="136" y="270" type="line"/>
      <point x="136" y="0" type="line"/>
      <point x="63" y="0" type="line"/>
      <point x="63" y="547" type="line"/>
      <point x="136" y="547" type="line"/>
      <point x="136" y="343" type="line"/>
      <point x="319" y="343" type="line"/>
      <point x="319" y="547" type="line"/>
      <point x="393" y="547" type="line"/>
      <point x="393" y="343" type="line"/>
      <point x="484" y="343" type="line" smooth="yes"/>
      <point x="594" y="343"/>
      <point x="695" y="310"/>
      <point x="695" y="169" type="curve" smooth="yes"/>
      <point x="695" y="42"/>
      <point x="621" y="0"/>
      <point x="484" y="0" type="curve" smooth="yes"/>
    </contour>
    <contour>
      <point x="484" y="269" type="curve" smooth="yes"/>
      <point x="393" y="269" type="line"/>
      <point x="393" y="67" type="line"/>
      <point x="484" y="67" type="line" smooth="yes"/>
      <point x="586" y="67"/>
      <point x="629" y="97"/>
      <point x="629" y="166" type="curve" smooth="yes"/>
      <point x="629" y="241"/>
      <point x="590" y="269"/>
    </contour>
  </outline>
</glyph>
<glyph name="afii10108" format="1">
  <advance width="536"/>
  <unicode hex="045B"/>
  <outline>
    <contour>
      <point x="140" y="600" type="line"/>
      <point x="140" y="442" type="line"/>
      <point x="220" y="442" type="line" smooth="yes"/>
      <point x="308" y="442"/>
      <point x="367" y="437"/>
      <point x="414" y="390" type="curve" smooth="yes"/>
      <point x="461" y="343"/>
      <point x="470" y="298"/>
      <point x="470" y="227" type="curve" smooth="yes"/>
      <point x="470" y="0" type="line"/>
      <point x="396" y="0" type="line"/>
      <point x="396" y="227" type="line" smooth="yes"/>
      <point x="396" y="271"/>
      <point x="389" y="312"/>
      <point x="362" y="339" type="curve" smooth="yes"/>
      <point x="332" y="369"/>
      <point x="287" y="375"/>
      <point x="221" y="375" type="curve" smooth="yes"/>
      <point x="140" y="375" type="line"/>
      <point x="140" y="0" type="line"/>
      <point x="66" y="0" type="line"/>
      <point x="66" y="600" type="line"/>
      <point x="-19" y="600" type="line"/>
      <point x="-19" y="666" type="line"/>
      <point x="66" y="666" type="line"/>
      <point x="66" y="739" type="line"/>
      <point x="140" y="739" type="line"/>
      <point x="140" y="666" type="line"/>
      <point x="318" y="666" type="line"/>
      <point x="318" y="600" type="line"/>
    </contour>
  </outline>
</glyph>
<glyph name="uni045D" format="1">
  <advance width="608"/>
  <unicode hex="045D"/>
  <outline>
    <contour>
      <point x="139" y="786" type="line"/>
      <point x="337" y="676" type="line"/>
      <point x="304" y="620" type="line"/>
      <point x="107" y="728" type="line"/>
    </contour>
    <contour>
      <point x="63" y="0" type="line"/>
      <point x="63" y="547" type="line"/>
      <point x="136" y="547" type="line"/>
      <point x="136" y="102" type="line"/>
      <point x="472" y="547" type="line"/>
      <point x="545" y="547" type="line"/>
      <point x="545" y="0" type="line"/>
      <point x="472" y="0" type="line"/>
      <point x="472" y="445" type="line"/>
      <point x="136" y="0" type="line"/>
    </contour>
  </outline>
</glyph>
<glyph name="afii10110" format="1">
  <advance width="536"/>
  <unicode hex="045E"/>
  <outline>
    <contour>
      <point x="116" y="740" type="curve"/>
      <point x="180" y="740" type="line"/>
      <point x="184" y="715"/>
      <point x="191" y="704"/>
      <point x="206" y="694" type="curve"/>
      <point x="224" y="684"/>
      <point x="246" y="678"/>
      <point x="268" y="678" type="curve" smooth="yes"/>
      <point x="290" y="678"/>
      <point x="312" y="684"/>
      <point x="330" y="694" type="curve"/>
      <point x="345" y="704"/>
      <point x="352" y="715"/>
      <point x="356" y="740" type="curve"/>
      <point x="420" y="740" type="line"/>
      <point x="411" y="691"/>
      <point x="399" y="669"/>
      <point x="371" y="649" type="curve" smooth="yes"/>
      <point x="345" y="630"/>
      <point x="310" y="620"/>
      <point x="268" y="620" type="curve" smooth="yes"/>
      <point x="179" y="620"/>
      <point x="131" y="658"/>
    </contour>
    <contour>
      <point x="132" y="-192" type="line"/>
      <point x="221" y="18" type="line"/>
      <point x="9" y="547" type="line"/>
      <point x="90" y="547" type="line"/>
      <point x="263" y="111" type="line"/>
      <point x="448" y="547" type="line"/>
      <point x="527" y="547" type="line"/>
      <point x="211" y="-192" type="line"/>
    </contour>
  </outline>
</glyph>
<glyph name="afii10193" format="1">
  <advance width="529"/>
  <unicode hex="045F"/>
  <outline>
    <contour>
      <point x="236" y="0" type="line"/>
      <point x="63" y="0" type="line"/>
      <point x="63" y="547" type="line"/>
      <point x="137" y="547" type="line"/>
      <point x="137" y="67" type="line"/>
      <point x="392" y="67" type="line"/>
      <point x="392" y="547" type="line"/>
      <point x="466" y="547" type="line"/>
      <point x="466" y="0" type="line"/>
      <point x="300" y="0" type="line"/>
      <point x="300" y="-140" type="line"/>
      <point x="236" y="-140" type="line"/>
    </contour>
  </outline>
</glyph>
<glyph name="uni048E" format="1">
  <advance width="592"/>
  <unicode hex="048E"/>
  <outline>
    <contour>
      <point x="358" y="370" type="curve"/>
      <point x="274" y="454" type="line"/>
      <point x="319" y="499" type="line"/>
      <point x="428" y="390" type="line"/>
      <point x="429" y="391" type="line"/>
      <point x="467" y="412"/>
      <point x="490" y="458"/>
      <point x="490" y="515" type="curve" smooth="yes"/>
      <point x="490" y="581"/>
      <point x="466" y="628"/>
      <point x="423" y="650" type="curve" smooth="yes"/>
      <point x="393" y="665"/>
      <point x="340" y="672"/>
      <point x="255" y="672" type="curve" smooth="yes"/>
      <point x="150" y="672" type="line"/>
      <point x="150" y="366" type="line"/>
      <point x="287" y="366" type="line" smooth="yes"/>
      <point x="314" y="366"/>
      <point x="338" y="367"/>
    </contour>
    <contour>
      <point x="417" y="311" type="line"/>
      <point x="384" y="303"/>
      <point x="345" y="299"/>
      <point x="292" y="299" type="curve" smooth="yes"/>
      <point x="150" y="299" type="line"/>
      <point x="150" y="0" type="line"/>
      <point x="76" y="0" type="line"/>
      <point x="76" y="739" type="line"/>
      <point x="280" y="739" type="line" smooth="yes"/>
      <point x="375" y="739"/>
      <point x="431" y="728"/>
      <point x="477" y="700" type="curve" smooth="yes"/>
      <point x="533" y="667"/>
      <point x="565" y="600"/>
      <point x="565" y="515" type="curve" smooth="yes"/>
      <point x="565" y="441"/>
      <point x="539" y="380"/>
      <point x="491" y="345" type="curve" smooth="yes"/>
      <point x="488" y="342"/>
      <point x="484" y="340"/>
      <point x="480" y="338" type="curve"/>
      <point x="558" y="260" type="line"/>
      <point x="513" y="215" type="line"/>
    </contour>
  </outline>
</glyph>
<glyph name="afii10098" format="1">
  <advance width="369"/>
  <unicode hex="0491"/>
  <outline>
    <contour>
      <point x="63" y="0" type="line"/>
      <point x="63" y="547" type="line"/>
      <point x="293" y="547" type="line"/>
      <point x="293" y="610" type="line"/>
      <point x="364" y="610" type="line"/>
      <point x="364" y="479" type="line"/>
      <point x="136" y="479" type="line"/>
      <point x="136" y="0" type="line"/>
    </contour>
  </outline>
</glyph>
<glyph name="uni0492" format="1">
  <advance width="487"/>
  <unicode hex="0492"/>
  <outline>
    <contour>
      <point x="150" y="429" type="line"/>
      <point x="150" y="0" type="line"/>
      <point x="76" y="0" type="line"/>
      <point x="76" y="429" type="line"/>
      <point x="10" y="429" type="line"/>
      <point x="10" y="493" type="line"/>
      <point x="76" y="493" type="line"/>
      <point x="76" y="739" type="line"/>
      <point x="480" y="739" type="line"/>
      <point x="480" y="672" type="line"/>
      <point x="150" y="672" type="line"/>
      <point x="150" y="493" type="line"/>
      <point x="244" y="493" type="line"/>
      <point x="244" y="429" type="line"/>
    </contour>
  </outline>
</glyph>
<glyph name="uni0493" format="1">
  <advance width="369"/>
  <unicode hex="0493"/>
  <outline>
    <contour>
      <point x="135" y="335" type="line"/>
      <point x="135" y="0" type="line"/>
      <point x="62" y="0" type="line"/>
      <point x="62" y="335" type="line"/>
      <point x="3" y="335" type="line"/>
      <point x="3" y="399" type="line"/>
      <point x="63" y="399" type="line"/>
      <point x="63" y="547" type="line"/>
      <point x="364" y="547" type="line"/>
      <point x="364" y="479" type="line"/>
      <point x="136" y="479" type="line"/>
      <point x="136" y="399" type="line"/>
      <point x="220" y="399" type="line"/>
      <point x="220" y="335" type="line"/>
    </contour>
  </outline>
</glyph>
<glyph name="uni0495" format="1">
  <advance width="461"/>
  <unicode hex="0495"/>
  <outline>
    <contour>
      <point x="136" y="480" type="line"/>
      <point x="136" y="350" type="line"/>
      <point x="188" y="350" type="line" smooth="yes"/>
      <point x="281" y="350"/>
      <point x="338" y="327"/>
      <point x="359" y="310" type="curve" smooth="yes"/>
      <point x="406" y="271"/>
      <point x="436" y="220"/>
      <point x="436" y="147" type="curve" smooth="yes"/>
      <point x="436" y="95" type="line" smooth="yes"/>
      <point x="436" y="9"/>
      <point x="427" y="-68"/>
      <point x="407" y="-105" type="curve" smooth="yes"/>
      <point x="387" y="-142"/>
      <point x="359" y="-168"/>
      <point x="332" y="-179" type="curve" smooth="yes"/>
      <point x="306" y="-190"/>
      <point x="247" y="-201"/>
      <point x="198" y="-201" type="curve"/>
      <point x="198" y="-139" type="line"/>
      <point x="272" y="-139"/>
      <point x="302" y="-123"/>
      <point x="321" y="-101" type="curve" smooth="yes"/>
      <point x="351" y="-67"/>
      <point x="362" y="-21"/>
      <point x="362" y="55" type="curve" smooth="yes"/>
      <point x="362" y="141" type="line" smooth="yes"/>
      <point x="362" y="217"/>
      <point x="322" y="254"/>
      <point x="303" y="266" type="curve" smooth="yes"/>
      <point x="293" y="272"/>
      <point x="239" y="289"/>
      <point x="191" y="289" type="curve" smooth="yes"/>
      <point x="136" y="289" type="line"/>
      <point x="136" y="0" type="line"/>
      <point x="63" y="0" type="line"/>
      <point x="63" y="547" type="line"/>
      <point x="364" y="547" type="line"/>
      <point x="364" y="479" type="line"/>
    </contour>
  </outline>
</glyph>
<glyph name="uni0496" format="1">
  <advance width="987"/>
  <unicode hex="0496"/>
  <outline>
    <contour>
      <point x="138" y="0" type="line"/>
      <point x="45" y="0" type="line"/>
      <point x="337" y="379" type="line"/>
      <point x="55" y="739" type="line"/>
      <point x="148" y="739" type="line"/>
      <point x="430" y="379" type="line"/>
    </contour>
    <contour>
      <point x="529" y="0" type="line"/>
      <point x="455" y="0" type="line"/>
      <point x="455" y="739" type="line"/>
      <point x="529" y="739" type="line"/>
    </contour>
    <contour>
      <point x="882" y="67" type="line"/>
      <point x="943" y="67" type="line"/>
      <point x="943" y="-140" type="line"/>
      <point x="869" y="-140" type="line"/>
      <point x="869" y="0" type="line"/>
      <point x="841" y="0" type="line"/>
      <point x="549" y="379" type="line"/>
      <point x="831" y="739" type="line"/>
      <point x="924" y="739" type="line"/>
      <point x="642" y="379" type="line"/>
    </contour>
  </outline>
</glyph>
<glyph name="uni0499" format="1">
  <advance width="486"/>
  <unicode hex="0499"/>
  <outline>
    <contour>
      <point x="218" y="-12" type="curve"/>
      <point x="67" y="5"/>
      <point x="27" y="151"/>
      <point x="27" y="151" type="curve"/>
      <point x="94" y="151" type="line"/>
      <point x="94" y="151"/>
      <point x="137" y="55"/>
      <point x="246" y="55" type="curve" smooth="yes"/>
      <point x="328" y="55"/>
      <point x="393" y="96"/>
      <point x="393" y="151" type="curve" smooth="yes"/>
      <point x="393" y="220"/>
      <point x="332" y="255"/>
      <point x="256" y="255" type="curve" smooth="yes"/>
      <point x="184" y="255" type="line"/>
      <point x="184" y="328" type="line"/>
      <point x="256" y="328" type="line" smooth="yes"/>
      <point x="307" y="328"/>
      <point x="352" y="354"/>
      <point x="352" y="417" type="curve" smooth="yes"/>
      <point x="352" y="464"/>
      <point x="294" y="492"/>
      <point x="246" y="492" type="curve" smooth="yes"/>
      <point x="160" y="492"/>
      <point x="134" y="417"/>
      <point x="134" y="417" type="curve"/>
      <point x="67" y="417" type="line"/>
      <point x="67" y="417"/>
      <point x="102" y="560"/>
      <point x="246" y="560" type="curve" smooth="yes"/>
      <point x="356" y="560"/>
      <point x="419" y="499"/>
      <point x="419" y="417" type="curve" smooth="yes"/>
      <point x="419" y="366"/>
      <point x="386" y="312"/>
      <point x="351" y="297" type="curve"/>
      <point x="414" y="288"/>
      <point x="463" y="216"/>
      <point x="463" y="151" type="curve" smooth="yes"/>
      <point x="463" y="65"/>
      <point x="391" y="-3"/>
      <point x="272" y="-12" type="curve"/>
      <point x="309" y="-38"/>
      <point x="326" y="-66"/>
      <point x="326" y="-101" type="curve" smooth="yes"/>
      <point x="326" y="-153"/>
      <point x="283" y="-191"/>
      <point x="223" y="-191" type="curve" smooth="yes"/>
      <point x="207" y="-191"/>
      <point x="191" y="-188"/>
      <point x="172" y="-182" type="curve"/>
      <point x="172" y="-136" type="line"/>
      <point x="187" y="-143"/>
      <point x="201" y="-146"/>
      <point x="217" y="-146" type="curve" smooth="yes"/>
      <point x="251" y="-146"/>
      <point x="276" y="-125"/>
      <point x="276" y="-97" type="curve" smooth="yes"/>
      <point x="276" y="-73"/>
      <point x="253" y="-40"/>
    </contour>
  </outline>
</glyph>
<glyph name="uni049B" format="1">
  <advance width="534"/>
  <unicode hex="049B"/>
  <outline>
    <contour>
      <point x="137" y="547" type="line"/>
      <point x="137" y="0" type="line"/>
      <point x="63" y="0" type="line"/>
      <point x="63" y="547" type="line"/>
    </contour>
    <contour>
      <point x="441" y="67" type="line"/>
      <point x="507" y="67" type="line"/>
      <point x="507" y="-129" type="line"/>
      <point x="433" y="-129" type="line"/>
      <point x="433" y="0" type="line"/>
      <point x="405" y="0" type="line"/>
      <point x="179" y="272" type="line"/>
      <point x="392" y="547" type="line"/>
      <point x="483" y="547" type="line"/>
      <point x="270" y="272" type="line"/>
    </contour>
  </outline>
</glyph>
<glyph name="uni049C" format="1">
  <advance width="591"/>
  <unicode hex="049C"/>
  <outline>
    <contour>
      <point x="150" y="0" type="line"/>
      <point x="76" y="0" type="line"/>
      <point x="76" y="739" type="line"/>
      <point x="150" y="739" type="line"/>
    </contour>
    <contour>
      <point x="255" y="486" type="line"/>
      <point x="467" y="739" type="line"/>
      <point x="560" y="739" type="line"/>
      <point x="258" y="379" type="line"/>
      <point x="570" y="0" type="line"/>
      <point x="477" y="0" type="line"/>
      <point x="255" y="270" type="line"/>
      <point x="255" y="182" type="line"/>
      <point x="191" y="182" type="line"/>
      <point x="191" y="347" type="line"/>
      <point x="165" y="379" type="line"/>
      <point x="191" y="410" type="line"/>
      <point x="191" y="589" type="line"/>
      <point x="255" y="589" type="line"/>
    </contour>
  </outline>
</glyph>
<glyph name="uni049F" format="1">
  <advance width="502"/>
  <unicode hex="049F"/>
  <outline>
    <contour>
      <point x="392" y="547" type="line"/>
      <point x="483" y="547" type="line"/>
      <point x="270" y="272" type="line"/>
      <point x="497" y="0" type="line"/>
      <point x="405" y="0" type="line"/>
      <point x="179" y="272" type="line"/>
    </contour>
    <contour>
      <point x="63" y="427" type="line"/>
      <point x="1" y="427" type="line"/>
      <point x="1" y="491" type="line"/>
      <point x="63" y="491" type="line"/>
      <point x="63" y="547" type="line"/>
      <point x="137" y="547" type="line"/>
      <point x="137" y="491" type="line"/>
      <point x="208" y="491" type="line"/>
      <point x="208" y="427" type="line"/>
      <point x="137" y="427" type="line"/>
      <point x="137" y="0" type="line"/>
      <point x="63" y="0" type="line"/>
    </contour>
  </outline>
</glyph>
<glyph name="uni04A1" format="1">
  <advance width="592"/>
  <unicode hex="04A1"/>
  <outline>
    <contour>
      <point x="227" y="547" type="line"/>
      <point x="227" y="0" type="line"/>
      <point x="153" y="0" type="line"/>
      <point x="153" y="470" type="line"/>
      <point x="6" y="470" type="line"/>
      <point x="6" y="547" type="line"/>
    </contour>
    <contour>
      <point x="482" y="547" type="line"/>
      <point x="573" y="547" type="line"/>
      <point x="360" y="272" type="line"/>
      <point x="587" y="0" type="line"/>
      <point x="495" y="0" type="line"/>
      <point x="269" y="272" type="line"/>
    </contour>
  </outline>
</glyph>
<glyph name="uni04A4" format="1">
  <advance width="986"/>
  <unicode hex="04A4"/>
  <outline>
    <contour>
      <point x="607" y="0" type="line"/>
      <point x="533" y="0" type="line"/>
      <point x="533" y="347" type="line"/>
      <point x="150" y="347" type="line"/>
      <point x="150" y="0" type="line"/>
      <point x="76" y="0" type="line"/>
      <point x="76" y="739" type="line"/>
      <point x="150" y="739" type="line"/>
      <point x="150" y="414" type="line"/>
      <point x="533" y="414" type="line"/>
      <point x="533" y="739" type="line"/>
      <point x="967" y="739" type="line"/>
      <point x="967" y="672" type="line"/>
      <point x="607" y="672" type="line"/>
    </contour>
  </outline>
</glyph>
<glyph name="uni04B0" format="1">
  <advance width="592"/>
  <unicode hex="04B0"/>
  <outline>
    <contour>
      <point x="331" y="185" type="line"/>
      <point x="331" y="0" type="line"/>
      <point x="257" y="0" type="line"/>
      <point x="257" y="185" type="line"/>
      <point x="129" y="185" type="line"/>
      <point x="129" y="249" type="line"/>
      <point x="257" y="249" type="line"/>
      <point x="2" y="739" type="line"/>
      <point x="84" y="739" type="line"/>
      <point x="294" y="325" type="line"/>
      <point x="509" y="739" type="line"/>
      <point x="590" y="739" type="line"/>
      <point x="333" y="249" type="line"/>
      <point x="466" y="249" type="line"/>
      <point x="466" y="185" type="line"/>
    </contour>
  </outline>
</glyph>
<glyph name="uni04B1" format="1">
  <advance width="554"/>
  <unicode hex="04B1"/>
  <outline>
    <contour>
      <point x="316" y="0" type="line"/>
      <point x="316" y="-192" type="line"/>
      <point x="238" y="-192" type="line"/>
      <point x="238" y="0" type="line"/>
      <point x="112" y="0" type="line"/>
      <point x="112" y="64" type="line"/>
      <point x="211" y="64" type="line"/>
      <point x="8" y="547" type="line"/>
      <point x="83" y="547" type="line"/>
      <point x="275" y="87" type="line"/>
      <point x="471" y="547" type="line"/>
      <point x="546" y="547" type="line"/>
      <point x="343" y="64" type="line"/>
      <point x="448" y="64" type="line"/>
      <point x="448" y="0" type="line"/>
    </contour>
  </outline>
</glyph>
<glyph name="uni04B6" format="1">
  <advance width="664"/>
  <unicode hex="04B6"/>
  <outline>
    <contour>
      <point x="559" y="67" type="line"/>
      <point x="620" y="67" type="line"/>
      <point x="620" y="-140" type="line"/>
      <point x="546" y="-140" type="line"/>
      <point x="546" y="0" type="line"/>
      <point x="485" y="0" type="line"/>
      <point x="485" y="299" type="line"/>
      <point x="310" y="299" type="line" smooth="yes"/>
      <point x="222" y="299"/>
      <point x="161" y="297"/>
      <point x="114" y="346" type="curve" smooth="yes"/>
      <point x="68" y="394"/>
      <point x="66" y="406"/>
      <point x="66" y="520" type="curve" smooth="yes"/>
      <point x="66" y="739" type="line"/>
      <point x="140" y="739" type="line"/>
      <point x="140" y="514" type="line" smooth="yes"/>
      <point x="140" y="470"/>
      <point x="146" y="428"/>
      <point x="174" y="402" type="curve" smooth="yes"/>
      <point x="222" y="358"/>
      <point x="246" y="366"/>
      <point x="312" y="366" type="curve" smooth="yes"/>
      <point x="485" y="366" type="line"/>
      <point x="485" y="739" type="line"/>
      <point x="559" y="739" type="line"/>
    </contour>
  </outline>
</glyph>
<glyph name="uni04B7" format="1">
  <advance width="530"/>
  <unicode hex="04B7"/>
  <outline>
    <contour>
      <point x="437" y="67" type="line"/>
      <point x="503" y="67" type="line"/>
      <point x="503" y="-129" type="line"/>
      <point x="429" y="-129" type="line"/>
      <point x="429" y="0" type="line"/>
      <point x="364" y="0" type="line"/>
      <point x="364" y="201" type="line"/>
      <point x="190" y="201" type="line" smooth="yes"/>
      <point x="155" y="201"/>
      <point x="110" y="214"/>
      <point x="75" y="250" type="curve" smooth="yes"/>
      <point x="42" y="283"/>
      <point x="34" y="338"/>
      <point x="34" y="374" type="curve" smooth="yes"/>
      <point x="34" y="547" type="line"/>
      <point x="108" y="547" type="line"/>
      <point x="108" y="378" type="line" smooth="yes"/>
      <point x="108" y="344"/>
      <point x="120" y="306"/>
      <point x="142" y="288" type="curve" smooth="yes"/>
      <point x="174" y="262"/>
      <point x="186" y="266"/>
      <point x="260" y="266" type="curve" smooth="yes"/>
      <point x="364" y="266" type="line"/>
      <point x="364" y="547" type="line"/>
      <point x="437" y="547" type="line"/>
    </contour>
  </outline>
</glyph>
<glyph name="uni04B9" format="1">
  <advance width="500"/>
  <unicode hex="04B9"/>
  <outline>
    <contour>
      <point x="210" y="202" type="line"/>
      <point x="190" y="202" type="line" smooth="yes"/>
      <point x="155" y="202"/>
      <point x="110" y="215"/>
      <point x="75" y="251" type="curve" smooth="yes"/>
      <point x="42" y="284"/>
      <point x="34" y="339"/>
      <point x="34" y="375" type="curve" smooth="yes"/>
      <point x="34" y="547" type="line"/>
      <point x="108" y="547" type="line"/>
      <point x="108" y="379" type="line" smooth="yes"/>
      <point x="108" y="345"/>
      <point x="120" y="307"/>
      <point x="142" y="289" type="curve" smooth="yes"/>
      <point x="165" y="270"/>
      <point x="178" y="267"/>
      <point x="210" y="267" type="curve"/>
      <point x="210" y="377" type="line"/>
      <point x="274" y="377" type="line"/>
      <point x="274" y="267" type="line"/>
      <point x="364" y="267" type="line"/>
      <point x="364" y="547" type="line"/>
      <point x="437" y="547" type="line"/>
      <point x="437" y="0" type="line"/>
      <point x="364" y="0" type="line"/>
      <point x="364" y="202" type="line"/>
      <point x="274" y="202" type="line"/>
      <point x="274" y="101" type="line"/>
      <point x="210" y="101" type="line"/>
    </contour>
  </outline>
</glyph>
<glyph name="uni04BA" format="1">
  <advance width="635"/>
  <unicode hex="04BA"/>
  <outline>
    <contour>
      <point x="559" y="0" type="line"/>
      <point x="485" y="0" type="line"/>
      <point x="485" y="227" type="line" smooth="yes"/>
      <point x="485" y="271"/>
      <point x="479" y="313"/>
      <point x="451" y="339" type="curve" smooth="yes"/>
      <point x="403" y="383"/>
      <point x="376" y="375"/>
      <point x="310" y="375" type="curve" smooth="yes"/>
      <point x="140" y="375" type="line"/>
      <point x="140" y="0" type="line"/>
      <point x="66" y="0" type="line"/>
      <point x="66" y="739" type="line"/>
      <point x="140" y="739" type="line"/>
      <point x="140" y="442" type="line"/>
      <point x="309" y="442" type="line" smooth="yes"/>
      <point x="397" y="442"/>
      <point x="462" y="442"/>
      <point x="509" y="393" type="curve" smooth="yes"/>
      <point x="555" y="345"/>
      <point x="559" y="303"/>
      <point x="559" y="189" type="curve" smooth="yes"/>
    </contour>
  </outline>
</glyph>
<glyph name="uni04C2" format="1">
  <advance width="808"/>
  <unicode hex="04C2"/>
  <outline>
    <contour>
      <point x="252" y="740" type="curve"/>
      <point x="316" y="740" type="line"/>
      <point x="320" y="715"/>
      <point x="327" y="704"/>
      <point x="342" y="694" type="curve"/>
      <point x="360" y="684"/>
      <point x="382" y="678"/>
      <point x="404" y="678" type="curve" smooth="yes"/>
      <point x="426" y="678"/>
      <point x="448" y="684"/>
      <point x="466" y="694" type="curve"/>
      <point x="481" y="704"/>
      <point x="488" y="715"/>
      <point x="492" y="740" type="curve"/>
      <point x="556" y="740" type="line"/>
      <point x="547" y="691"/>
      <point x="535" y="669"/>
      <point x="507" y="649" type="curve" smooth="yes"/>
      <point x="481" y="630"/>
      <point x="446" y="620"/>
      <point x="404" y="620" type="curve" smooth="yes"/>
      <point x="315" y="620"/>
      <point x="267" y="658"/>
    </contour>
    <contour>
      <point x="112" y="547" type="line"/>
      <point x="325" y="272" type="line"/>
      <point x="99" y="0" type="line"/>
      <point x="7" y="0" type="line"/>
      <point x="234" y="272" type="line"/>
      <point x="21" y="547" type="line"/>
    </contour>
    <contour>
      <point x="441" y="547" type="line"/>
      <point x="441" y="0" type="line"/>
      <point x="367" y="0" type="line"/>
      <point x="367" y="547" type="line"/>
    </contour>
    <contour>
      <point x="696" y="547" type="line"/>
      <point x="787" y="547" type="line"/>
      <point x="574" y="272" type="line"/>
      <point x="801" y="0" type="line"/>
      <point x="709" y="0" type="line"/>
      <point x="483" y="272" type="line"/>
    </contour>
  </outline>
</glyph>
<glyph name="uni04C7" format="1">
  <advance width="683"/>
  <unicode hex="04C7"/>
  <outline>
    <contour>
      <point x="607" y="143" type="line" smooth="yes"/>
      <point x="607" y="-36"/>
      <point x="573" y="-180"/>
      <point x="403" y="-180" type="curve" smooth="yes"/>
      <point x="339" y="-180" type="line"/>
      <point x="339" y="-113" type="line"/>
      <point x="405" y="-113" type="line" smooth="yes"/>
      <point x="511" y="-113"/>
      <point x="533" y="29"/>
      <point x="533" y="143" type="curve" smooth="yes"/>
      <point x="533" y="347" type="line"/>
      <point x="150" y="347" type="line"/>
      <point x="150" y="0" type="line"/>
      <point x="76" y="0" type="line"/>
      <point x="76" y="739" type="line"/>
      <point x="150" y="739" type="line"/>
      <point x="150" y="414" type="line"/>
      <point x="533" y="414" type="line"/>
      <point x="533" y="739" type="line"/>
      <point x="607" y="739" type="line"/>
    </contour>
  </outline>
</glyph>
<glyph name="uni04D6" format="1">
  <advance width="536"/>
  <unicode hex="04D6"/>
  <outline>
    <contour>
      <point x="126" y="932" type="curve"/>
      <point x="190" y="932" type="line"/>
      <point x="194" y="907"/>
      <point x="201" y="896"/>
      <point x="216" y="886" type="curve"/>
      <point x="234" y="876"/>
      <point x="256" y="870"/>
      <point x="278" y="870" type="curve" smooth="yes"/>
      <point x="300" y="870"/>
      <point x="322" y="876"/>
      <point x="340" y="886" type="curve"/>
      <point x="355" y="896"/>
      <point x="362" y="907"/>
      <point x="366" y="932" type="curve"/>
      <point x="430" y="932" type="line"/>
      <point x="421" y="883"/>
      <point x="409" y="861"/>
      <point x="381" y="841" type="curve" smooth="yes"/>
      <point x="355" y="822"/>
      <point x="320" y="812"/>
      <point x="278" y="812" type="curve" smooth="yes"/>
      <point x="189" y="812"/>
      <point x="141" y="850"/>
    </contour>
    <contour>
      <point x="76" y="0" type="line"/>
      <point x="76" y="739" type="line"/>
      <point x="480" y="739" type="line"/>
      <point x="480" y="672" type="line"/>
      <point x="150" y="672" type="line"/>
      <point x="150" y="407" type="line"/>
      <point x="469" y="407" type="line"/>
      <point x="469" y="340" type="line"/>
      <point x="150" y="340" type="line"/>
      <point x="150" y="67" type="line"/>
      <point x="480" y="67" type="line"/>
      <point x="480" y="0" type="line"/>
    </contour>
  </outline>
</glyph>
<glyph name="uni04DC" format="1">
  <advance width="974"/>
  <unicode hex="04DC"/>
  <outline>
    <contour>
      <point x="379" y="938" type="line"/>
      <point x="453" y="938" type="line"/>
      <point x="453" y="812" type="line"/>
      <point x="379" y="812" type="line"/>
    </contour>
    <contour>
      <point x="526" y="938" type="line"/>
      <point x="600" y="938" type="line"/>
      <point x="600" y="812" type="line"/>
      <point x="526" y="812" type="line"/>
    </contour>
    <contour>
      <point x="138" y="0" type="line"/>
      <point x="45" y="0" type="line"/>
      <point x="337" y="379" type="line"/>
      <point x="55" y="739" type="line"/>
      <point x="148" y="739" type="line"/>
      <point x="430" y="379" type="line"/>
    </contour>
    <contour>
      <point x="529" y="0" type="line"/>
      <point x="455" y="0" type="line"/>
      <point x="455" y="739" type="line"/>
      <point x="529" y="739" type="line"/>
    </contour>
    <contour>
      <point x="841" y="0" type="line"/>
      <point x="549" y="379" type="line"/>
      <point x="831" y="739" type="line"/>
      <point x="924" y="739" type="line"/>
      <point x="642" y="379" type="line"/>
      <point x="934" y="0" type="line"/>
    </contour>
  </outline>
</glyph>
<glyph name="uni04DF" format="1">
  <advance width="486"/>
  <unicode hex="04DF"/>
  <outline>
    <contour>
      <point x="136" y="746" type="line"/>
      <point x="210" y="746" type="line"/>
      <point x="210" y="620" type="line"/>
      <point x="136" y="620" type="line"/>
    </contour>
    <contour>
      <point x="283" y="746" type="line"/>
      <point x="357" y="746" type="line"/>
      <point x="357" y="620" type="line"/>
      <point x="283" y="620" type="line"/>
    </contour>
    <contour>
      <point x="27" y="151" type="curve"/>
      <point x="94" y="151" type="line"/>
      <point x="94" y="151"/>
      <point x="137" y="55"/>
      <point x="246" y="55" type="curve" smooth="yes"/>
      <point x="328" y="55"/>
      <point x="393" y="96"/>
      <point x="393" y="151" type="curve" smooth="yes"/>
      <point x="393" y="220"/>
      <point x="332" y="255"/>
      <point x="256" y="255" type="curve" smooth="yes"/>
      <point x="184" y="255" type="line"/>
      <point x="184" y="328" type="line"/>
      <point x="256" y="328" type="line" smooth="yes"/>
      <point x="307" y="328"/>
      <point x="352" y="354"/>
      <point x="352" y="417" type="curve" smooth="yes"/>
      <point x="352" y="464"/>
      <point x="294" y="492"/>
      <point x="246" y="492" type="curve" smooth="yes"/>
      <point x="160" y="492"/>
      <point x="134" y="417"/>
      <point x="134" y="417" type="curve"/>
      <point x="67" y="417" type="line"/>
      <point x="67" y="417"/>
      <point x="102" y="560"/>
      <point x="246" y="560" type="curve" smooth="yes"/>
      <point x="356" y="560"/>
      <point x="419" y="499"/>
      <point x="419" y="417" type="curve" smooth="yes"/>
      <point x="419" y="366"/>
      <point x="386" y="312"/>
      <point x="351" y="297" type="curve"/>
      <point x="414" y="288"/>
      <point x="463" y="216"/>
      <point x="463" y="151" type="curve" smooth="yes"/>
      <point x="463" y="59"/>
      <point x="380" y="-13"/>
      <point x="246" y="-13" type="curve" smooth="yes"/>
      <point x="72" y="-13"/>
      <point x="27" y="151"/>
    </contour>
  </outline>
</glyph>
<glyph name="uni04E0" format="1">
  <advance width="639"/>
  <unicode hex="04E0"/>
  <outline>
    <contour>
      <point x="129" y="194" type="line"/>
      <point x="150" y="154"/>
      <point x="206" y="55"/>
      <point x="336" y="55" type="curve" smooth="yes"/>
      <point x="456" y="55"/>
      <point x="539" y="96"/>
      <point x="539" y="206" type="curve" smooth="yes"/>
      <point x="539" y="298"/>
      <point x="475" y="357"/>
      <point x="391" y="357" type="curve" smooth="yes"/>
      <point x="267" y="357" type="line"/>
      <point x="267" y="424" type="line"/>
      <point x="468" y="472"/>
      <point x="519" y="684"/>
      <point x="519" y="684" type="curve"/>
      <point x="108" y="684" type="line"/>
      <point x="108" y="752" type="line"/>
      <point x="595" y="752" type="line"/>
      <point x="595" y="608"/>
      <point x="508" y="466"/>
      <point x="424" y="424" type="curve"/>
      <point x="512" y="424"/>
      <point x="614" y="328"/>
      <point x="614" y="210" type="curve" smooth="yes"/>
      <point x="614" y="60"/>
      <point x="516" y="-13"/>
      <point x="330" y="-13" type="curve" smooth="yes"/>
      <point x="118" y="-13"/>
      <point x="60" y="160"/>
      <point x="50" y="194" type="curve"/>
    </contour>
  </outline>
</glyph>
<glyph name="uni04E2" format="1">
  <advance width="740"/>
  <unicode hex="04E2"/>
  <outline>
    <contour>
      <point x="76" y="739" type="line"/>
      <point x="150" y="739" type="line"/>
      <point x="150" y="89" type="line"/>
      <point x="590" y="739" type="line"/>
      <point x="664" y="739" type="line"/>
      <point x="664" y="0" type="line"/>
      <point x="590" y="0" type="line"/>
      <point x="590" y="613" type="line"/>
      <point x="176" y="0" type="line"/>
      <point x="76" y="0" type="line"/>
    </contour>
    <contour>
      <point x="202" y="903" type="line"/>
      <point x="539" y="903" type="line"/>
      <point x="539" y="839" type="line"/>
      <point x="202" y="839" type="line"/>
    </contour>
  </outline>
</glyph>
<glyph name="uni04E4" format="1">
  <advance width="740"/>
  <unicode hex="04E4"/>
  <outline>
    <contour>
      <point x="76" y="739" type="line"/>
      <point x="150" y="739" type="line"/>
      <point x="150" y="89" type="line"/>
      <point x="590" y="739" type="line"/>
      <point x="664" y="739" type="line"/>
      <point x="664" y="0" type="line"/>
      <point x="590" y="0" type="line"/>
      <point x="590" y="613" type="line"/>
      <point x="176" y="0" type="line"/>
      <point x="76" y="0" type="line"/>
    </contour>
    <contour>
      <point x="260" y="965" type="line"/>
      <point x="334" y="965" type="line"/>
      <point x="334" y="839" type="line"/>
      <point x="260" y="839" type="line"/>
    </contour>
    <contour>
      <point x="407" y="965" type="line"/>
      <point x="481" y="965" type="line"/>
      <point x="481" y="839" type="line"/>
      <point x="407" y="839" type="line"/>
    </contour>
  </outline>
</glyph>
<glyph name="uni04E5" format="1">
  <advance width="608"/>
  <unicode hex="04E5"/>
  <outline>
    <contour>
      <point x="63" y="0" type="line"/>
      <point x="63" y="547" type="line"/>
      <point x="136" y="547" type="line"/>
      <point x="136" y="102" type="line"/>
      <point x="472" y="547" type="line"/>
      <point x="545" y="547" type="line"/>
      <point x="545" y="0" type="line"/>
      <point x="472" y="0" type="line"/>
      <point x="472" y="445" type="line"/>
      <point x="136" y="0" type="line"/>
    </contour>
    <contour>
      <point x="196" y="770" type="line"/>
      <point x="270" y="770" type="line"/>
      <point x="270" y="644" type="line"/>
      <point x="196" y="644" type="line"/>
    </contour>
    <contour>
      <point x="342" y="770" type="line"/>
      <point x="416" y="770" type="line"/>
      <point x="416" y="644" type="line"/>
      <point x="342" y="644" type="line"/>
    </contour>
  </outline>
</glyph>
<glyph name="uni04EA" format="1">
  <advance width="869"/>
  <unicode hex="04EA"/>
  <outline>
    <contour>
      <point x="435" y="752" type="curve" smooth="yes"/>
      <point x="649" y="752"/>
      <point x="825" y="580"/>
      <point x="825" y="369" type="curve" smooth="yes"/>
      <point x="825" y="160"/>
      <point x="649" y="-13"/>
      <point x="435" y="-13" type="curve" smooth="yes"/>
      <point x="218" y="-13"/>
      <point x="44" y="159"/>
      <point x="44" y="374" type="curve" smooth="yes"/>
      <point x="44" y="579"/>
      <point x="223" y="752"/>
    </contour>
    <contour>
      <point x="749" y="338" type="curve"/>
      <point x="121" y="338" type="line"/>
      <point x="138" y="179"/>
      <point x="272" y="55"/>
      <point x="435" y="55" type="curve" smooth="yes"/>
      <point x="597" y="55"/>
      <point x="733" y="181"/>
    </contour>
    <contour>
      <point x="748" y="402" type="line"/>
      <point x="731" y="559"/>
      <point x="596" y="684"/>
      <point x="435" y="684" type="curve" smooth="yes"/>
      <point x="274" y="684"/>
      <point x="136" y="558"/>
      <point x="121" y="402" type="curve"/>
    </contour>
    <contour>
      <point x="324" y="965" type="line"/>
      <point x="398" y="965" type="line"/>
      <point x="398" y="839" type="line"/>
      <point x="324" y="839" type="line"/>
    </contour>
    <contour>
      <point x="471" y="965" type="line"/>
      <point x="545" y="965" type="line"/>
      <point x="545" y="839" type="line"/>
      <point x="471" y="839" type="line"/>
    </contour>
  </outline>
</glyph>
<glyph name="uni04ED" format="1">
  <advance width="650"/>
  <unicode hex="04ED"/>
  <outline>
    <contour>
      <point x="206" y="746" type="line"/>
      <point x="280" y="746" type="line"/>
      <point x="280" y="620" type="line"/>
      <point x="206" y="620" type="line"/>
    </contour>
    <contour>
      <point x="353" y="746" type="line"/>
      <point x="427" y="746" type="line"/>
      <point x="427" y="620" type="line"/>
      <point x="353" y="620" type="line"/>
    </contour>
    <contour>
      <point x="214" y="240" type="line"/>
      <point x="214" y="307" type="line"/>
      <point x="532" y="307" type="line"/>
      <point x="516" y="414"/>
      <point x="427" y="492"/>
      <point x="316" y="492" type="curve" smooth="yes"/>
      <point x="236" y="492"/>
      <point x="168" y="453"/>
      <point x="126" y="381" type="curve"/>
      <point x="44" y="381" type="line"/>
      <point x="88" y="491"/>
      <point x="192" y="560"/>
      <point x="316" y="560" type="curve" smooth="yes"/>
      <point x="480" y="560"/>
      <point x="608" y="434"/>
      <point x="608" y="275" type="curve" smooth="yes"/>
      <point x="608" y="112"/>
      <point x="478" y="-13"/>
      <point x="310" y="-13" type="curve" smooth="yes"/>
      <point x="242" y="-13"/>
      <point x="180" y="9"/>
      <point x="128" y="49" type="curve"/>
      <point x="94" y="77"/>
      <point x="72" y="104"/>
      <point x="42" y="161" type="curve"/>
      <point x="126" y="161" type="line"/>
      <point x="184" y="85"/>
      <point x="236" y="55"/>
      <point x="314" y="55" type="curve" smooth="yes"/>
      <point x="425" y="55"/>
      <point x="515" y="135"/>
      <point x="531" y="240" type="curve"/>
    </contour>
  </outline>
</glyph>
<glyph name="uni04F0" format="1">
  <advance width="596"/>
  <unicode hex="04F0"/>
  <outline>
    <contour>
      <point x="188" y="938" type="line"/>
      <point x="262" y="938" type="line"/>
      <point x="262" y="812" type="line"/>
      <point x="188" y="812" type="line"/>
    </contour>
    <contour>
      <point x="335" y="938" type="line"/>
      <point x="409" y="938" type="line"/>
      <point x="409" y="812" type="line"/>
      <point x="335" y="812" type="line"/>
    </contour>
    <contour>
      <point x="123" y="0" type="line"/>
      <point x="253" y="247" type="line"/>
      <point x="4" y="739" type="line"/>
      <point x="86" y="739" type="line"/>
      <point x="296" y="325" type="line"/>
      <point x="511" y="739" type="line"/>
      <point x="592" y="739" type="line"/>
      <point x="334" y="247" type="line"/>
      <point x="204" y="0" type="line"/>
    </contour>
  </outline>
</glyph>
<glyph name="uni04F4" format="1">
  <advance width="635"/>
  <unicode hex="04F4"/>
  <outline>
    <contour>
      <point x="202" y="938" type="line"/>
      <point x="276" y="938" type="line"/>
      <point x="276" y="812" type="line"/>
      <point x="202" y="812" type="line"/>
    </contour>
    <contour>
      <point x="349" y="938" type="line"/>
      <point x="423" y="938" type="line"/>
      <point x="423" y="812" type="line"/>
      <point x="349" y="812" type="line"/>
    </contour>
    <contour>
      <point x="66" y="739" type="line"/>
      <point x="140" y="739" type="line"/>
      <point x="140" y="504" type="line" smooth="yes"/>
      <point x="140" y="362"/>
      <point x="207" y="356"/>
      <point x="312" y="356" type="curve" smooth="yes"/>
      <point x="485" y="356" type="line"/>
      <point x="485" y="739" type="line"/>
      <point x="559" y="739" type="line"/>
      <point x="559" y="0" type="line"/>
      <point x="485" y="0" type="line"/>
      <point x="485" y="289" type="line"/>
      <point x="310" y="289" type="line" smooth="yes"/>
      <point x="123" y="289"/>
      <point x="66" y="354"/>
      <point x="66" y="510" type="curve" smooth="yes"/>
    </contour>
  </outline>
</glyph>
<glyph name="uni04F5" format="1">
  <advance width="500"/>
  <unicode hex="04F5"/>
  <outline>
    <contour>
      <point x="125" y="746" type="line"/>
      <point x="199" y="746" type="line"/>
      <point x="199" y="620" type="line"/>
      <point x="125" y="620" type="line"/>
    </contour>
    <contour>
      <point x="272" y="746" type="line"/>
      <point x="346" y="746" type="line"/>
      <point x="346" y="620" type="line"/>
      <point x="272" y="620" type="line"/>
    </contour>
    <contour>
      <point x="34" y="547" type="line"/>
      <point x="108" y="547" type="line"/>
      <point x="108" y="378" type="line" smooth="yes"/>
      <point x="108" y="275"/>
      <point x="145" y="266"/>
      <point x="252" y="266" type="curve" smooth="yes"/>
      <point x="364" y="266" type="line"/>
      <point x="364" y="547" type="line"/>
      <point x="437" y="547" type="line"/>
      <point x="437" y="0" type="line"/>
      <point x="364" y="0" type="line"/>
      <point x="364" y="201" type="line"/>
      <point x="190" y="201" type="line" smooth="yes"/>
      <point x="92" y="201"/>
      <point x="34" y="278"/>
      <point x="34" y="374" type="curve" smooth="yes"/>
    </contour>
  </outline>
</glyph>
<glyph name="uni04F9" format="1">
  <advance width="670"/>
  <unicode hex="04F9"/>
  <outline>
    <contour>
      <point x="204" y="746" type="line"/>
      <point x="278" y="746" type="line"/>
      <point x="278" y="620" type="line"/>
      <point x="204" y="620" type="line"/>
    </contour>
    <contour>
      <point x="351" y="746" type="line"/>
      <point x="425" y="746" type="line"/>
      <point x="425" y="620" type="line"/>
      <point x="351" y="620" type="line"/>
    </contour>
    <contour>
      <point x="137" y="369" type="line"/>
      <point x="279" y="369" type="line" smooth="yes"/>
      <point x="402" y="369"/>
      <point x="492" y="293"/>
      <point x="492" y="183" type="curve" smooth="yes"/>
      <point x="492" y="73"/>
      <point x="403" y="0"/>
      <point x="283" y="0" type="curve" smooth="yes"/>
      <point x="63" y="0" type="line"/>
      <point x="63" y="547" type="line"/>
      <point x="137" y="547" type="line"/>
    </contour>
    <contour>
      <point x="137" y="67" type="line"/>
      <point x="282" y="67" type="line"/>
      <point x="362" y="68"/>
      <point x="418" y="113"/>
      <point x="418" y="183" type="curve" smooth="yes"/>
      <point x="418" y="253"/>
      <point x="360" y="301"/>
      <point x="279" y="301" type="curve" smooth="yes"/>
      <point x="137" y="301" type="line"/>
    </contour>
    <contour>
      <point x="533" y="0" type="line"/>
      <point x="533" y="547" type="line"/>
      <point x="607" y="547" type="line"/>
      <point x="607" y="0" type="line"/>
    </contour>
  </outline>
</glyph>
<glyph name="infinity" format="1">
  <advance width="768"/>
  <unicode hex="221E"/>
  <outline>
    <contour>
      <point x="654" y="320" type="curve" smooth="yes"/>
      <point x="654" y="392"/>
      <point x="604" y="440"/>
      <point x="534" y="440" type="curve" smooth="yes"/>
      <point x="464" y="440"/>
      <point x="412" y="322"/>
      <point x="412" y="322" type="curve"/>
      <point x="412" y="322"/>
      <point x="464" y="204"/>
      <point x="534" y="204" type="curve" smooth="yes"/>
      <point x="604" y="204"/>
      <point x="654" y="250"/>
    </contour>
    <contour>
      <point x="110" y="324" type="curve" smooth="yes"/>
      <point x="110" y="252"/>
      <point x="160" y="204"/>
      <point x="230" y="204" type="curve" smooth="yes"/>
      <point x="298" y="204"/>
      <point x="350" y="322"/>
      <point x="350" y="322" type="curve"/>
      <point x="350" y="322"/>
      <point x="298" y="440"/>
      <point x="230" y="440" type="curve" smooth="yes"/>
      <point x="160" y="440"/>
      <point x="110" y="394"/>
    </contour>
    <contour>
      <point x="42" y="324" type="curve" smooth="yes"/>
      <point x="42" y="438"/>
      <point x="116" y="520"/>
      <point x="226" y="520" type="curve" smooth="yes"/>
      <point x="300" y="520"/>
      <point x="354" y="476"/>
      <point x="382" y="416" type="curve"/>
      <point x="410" y="476"/>
      <point x="472" y="520"/>
      <point x="546" y="520" type="curve" smooth="yes"/>
      <point x="656" y="520"/>
      <point x="720" y="438"/>
      <point x="720" y="324" type="curve" smooth="yes"/>
      <point x="720" y="212"/>
      <point x="656" y="130"/>
      <point x="546" y="130" type="curve" smooth="yes"/>
      <point x="472" y="130"/>
      <point x="410" y="174"/>
      <point x="382" y="234" type="curve"/>
      <point x="354" y="174"/>
      <point x="300" y="130"/>
      <point x="226" y="130" type="curve" smooth="yes"/>
      <point x="116" y="130"/>
      <point x="42" y="212"/>
    </contour>
  </outline>
</glyph>
<glyph name="uniF6C4" format="1">
  <advance width="419"/>
  <unicode hex="F6C4"/>
  <outline>
    <contour>
      <point x="63" y="0" type="line"/>
      <point x="63" y="547" type="line"/>
      <point x="414" y="547" type="line"/>
      <point x="414" y="479" type="line"/>
      <point x="136" y="479" type="line"/>
      <point x="136" y="0" type="line"/>
    </contour>
  </outline>
</glyph>
<glyph name="uniF6C5" format="1">
  <advance width="656"/>
  <unicode hex="F6C5"/>
  <outline>
    <contour>
      <point x="334" y="560" type="curve" smooth="yes"/>
      <point x="498" y="560"/>
      <point x="618" y="439"/>
      <point x="618" y="272" type="curve" smooth="yes"/>
      <point x="618" y="108"/>
      <point x="500" y="-13"/>
      <point x="340" y="-13" type="curve" smooth="yes"/>
      <point x="170" y="-13"/>
      <point x="47" y="118"/>
      <point x="47" y="277" type="curve" smooth="yes"/>
      <point x="47" y="353"/>
      <point x="76" y="464"/>
      <point x="157" y="509" type="curve"/>
      <point x="114" y="530"/>
      <point x="98" y="556"/>
      <point x="98" y="622" type="curve" smooth="yes"/>
      <point x="98" y="727"/>
      <point x="196" y="742"/>
      <point x="320" y="742" type="curve" smooth="yes"/>
      <point x="416" y="742"/>
      <point x="567" y="773"/>
      <point x="567" y="773" type="curve"/>
      <point x="567" y="701" type="line"/>
      <point x="567" y="701"/>
      <point x="424" y="668"/>
      <point x="321" y="668" type="curve" smooth="yes"/>
      <point x="219" y="668"/>
      <point x="178" y="672"/>
      <point x="178" y="608" type="curve" smooth="yes"/>
      <point x="178" y="586"/>
      <point x="204" y="554"/>
      <point x="233" y="551" type="curve"/>
      <point x="288" y="557"/>
      <point x="258" y="560"/>
    </contour>
    <contour>
      <point x="334" y="492" type="curve" smooth="yes"/>
      <point x="213" y="492"/>
      <point x="122" y="399"/>
      <point x="122" y="275" type="curve" smooth="yes"/>
      <point x="122" y="147"/>
      <point x="212" y="55"/>
      <point x="338" y="55" type="curve" smooth="yes"/>
      <point x="457" y="55"/>
      <point x="543" y="146"/>
      <point x="543" y="271" type="curve" smooth="yes"/>
      <point x="543" y="398"/>
      <point x="454" y="492"/>
    </contour>
  </outline>
</glyph>
<glyph name="fl" format="1">
  <advance width="485"/>
  <unicode hex="FB02"/>
  <outline>
    <contour>
      <point x="98" y="0" type="line"/>
      <point x="98" y="480" type="line"/>
      <point x="13" y="480" type="line"/>
      <point x="13" y="547" type="line"/>
      <point x="98" y="547" type="line"/>
      <point x="96" y="674"/>
      <point x="167" y="739"/>
      <point x="308" y="739" type="curve"/>
      <point x="308" y="672" type="line"/>
      <point x="207" y="671"/>
      <point x="171" y="638"/>
      <point x="172" y="547" type="curve"/>
      <point x="308" y="547" type="line"/>
      <point x="308" y="480" type="line"/>
      <point x="172" y="480" type="line"/>
      <point x="172" y="0" type="line"/>
    </contour>
    <contour>
      <point x="348" y="0" type="line"/>
      <point x="348" y="739" type="line"/>
      <point x="422" y="739" type="line"/>
      <point x="422" y="0" type="line"/>
    </contour>
  </outline>
</glyph>
